<svg width="628" height="321" viewBox="0 0 628 321" fill="none" xmlns="http://www.w3.org/2000/svg">
<path fill-rule="evenodd" clip-rule="evenodd" d="M3 313.533C4.65685 313.533 6 314.876 6 316.533V321H3H0V316.533C0 314.876 1.34315 313.533 3 313.533ZM0 298.667C0 300.324 1.34315 301.667 3 301.667C4.65685 301.667 6 300.324 6 298.667V271.867C6 270.21 4.65685 268.867 3 268.867C1.34315 268.867 0 270.21 0 271.867V298.667ZM0 236.133C0 237.79 1.34315 239.133 3 239.133C4.65685 239.133 6 237.79 6 236.133V227.2C6 225.543 4.65685 224.2 3 224.2C1.34315 224.2 0 225.543 0 227.2V236.133ZM0 209.333C0 210.99 1.34315 212.333 3 212.333C4.65685 212.333 6 210.99 6 209.333V182.533C6 180.876 4.65685 179.533 3 179.533C1.34315 179.533 0 180.876 0 182.533V209.333ZM0 146.8C0 148.457 1.34315 149.8 3 149.8C4.65685 149.8 6 148.457 6 146.8V137.867C6 136.21 4.65685 134.867 3 134.867C1.34315 134.867 0 136.21 0 137.867V146.8ZM0 120C0 121.657 1.34315 123 3 123C4.65685 123 6 121.657 6 120V93.2C6 91.5431 4.65685 90.2 3 90.2C1.34315 90.2 0 91.5431 0 93.2V120ZM0 57.4666C0 59.1235 1.34315 60.4666 3 60.4666C4.65685 60.4666 6 59.1235 6 57.4666V53C6 52.5335 6.00679 52.0687 6.02026 51.6057C6.04272 50.8339 6.08376 50.0671 6.14292 49.3055C6.27125 47.6537 5.03617 46.2105 3.38429 46.0822C1.73242 45.9538 0.289275 47.1889 0.160944 48.8408C0.0976145 49.656 0.0527496 50.4762 0.0267489 51.3009C0.00895882 51.8652 0 52.4316 0 53V57.4666ZM5.64486 36.6318C4.11438 35.9971 3.38818 34.2419 4.02285 32.7114C7.24992 24.9294 12.2752 18.0865 18.5778 12.6985C19.8372 11.6218 21.7309 11.77 22.8075 13.0294C23.8842 14.2888 23.736 16.1825 22.4766 17.2591C16.8817 22.0421 12.4249 28.1136 9.5652 35.0098C8.93054 36.5403 7.17534 37.2665 5.64486 36.6318ZM46.0822 3.3843C45.9538 1.73242 47.1889 0.289275 48.8408 0.160944C49.6989 0.0942814 50.5625 0.0480783 51.4311 0.0228004C51.9523 0.00763369 52.4753 0 53 0H57.1071C58.764 0 60.1071 1.34315 60.1071 3C60.1071 4.65685 58.764 6 57.1071 6H53C52.4946 6 51.9911 6.00797 51.4897 6.02378C50.7571 6.04688 50.0289 6.08672 49.3055 6.14292C47.6536 6.27125 46.2105 5.03617 46.0822 3.3843ZM73.5357 6C71.8789 6 70.5357 4.65685 70.5357 3C70.5357 1.34315 71.8789 0 73.5357 0H98.1786C99.8354 0 101.179 1.34315 101.179 3C101.179 4.65685 99.8354 6 98.1786 6H73.5357ZM131.036 6C129.379 6 128.036 4.65685 128.036 3C128.036 1.34315 129.379 0 131.036 0H139.25C140.907 0 142.25 1.34315 142.25 3C142.25 4.65685 140.907 6 139.25 6H131.036ZM155.679 6C154.022 6 152.679 4.65685 152.679 3C152.679 1.34315 154.022 0 155.679 0H180.321C181.978 0 183.321 1.34315 183.321 3C183.321 4.65685 181.978 6 180.321 6H155.679ZM213.179 6C211.522 6 210.179 4.65685 210.179 3C210.179 1.34315 211.522 0 213.179 0H221.393C223.05 0 224.393 1.34315 224.393 3C224.393 4.65685 223.05 6 221.393 6H213.179ZM237.821 6C236.165 6 234.821 4.65685 234.821 3C234.821 1.34315 236.165 0 237.821 0H262.464C264.121 0 265.464 1.34315 265.464 3C265.464 4.65685 264.121 6 262.464 6H237.821ZM295.321 6C293.665 6 292.321 4.65685 292.321 3C292.321 1.34315 293.665 0 295.321 0H303.536C305.193 0 306.536 1.34315 306.536 3C306.536 4.65685 305.193 6 303.536 6H295.321ZM319.964 6C318.307 6 316.964 4.65685 316.964 3C316.964 1.34315 318.307 0 319.964 0H344.607C346.264 0 347.607 1.34315 347.607 3C347.607 4.65685 346.264 6 344.607 6H319.964ZM377.464 6C375.807 6 374.464 4.65685 374.464 3C374.464 1.34315 375.807 0 377.464 0H385.679C387.335 0 388.679 1.34315 388.679 3C388.679 4.65685 387.335 6 385.679 6H377.464ZM402.107 6C400.45 6 399.107 4.65685 399.107 3C399.107 1.34315 400.45 0 402.107 0H426.75C428.407 0 429.75 1.34315 429.75 3C429.75 4.65685 428.407 6 426.75 6H402.107ZM459.607 6C457.95 6 456.607 4.65685 456.607 3C456.607 1.34315 457.95 0 459.607 0H467.821C469.478 0 470.821 1.34315 470.821 3C470.821 4.65685 469.478 6 467.821 6H459.607ZM484.25 6C482.593 6 481.25 4.65685 481.25 3C481.25 1.34315 482.593 0 484.25 0H508.893C510.55 0 511.893 1.34315 511.893 3C511.893 4.65685 510.55 6 508.893 6H484.25ZM541.75 6C540.093 6 538.75 4.65685 538.75 3C538.75 1.34315 540.093 0 541.75 0H549.964C551.621 0 552.964 1.34315 552.964 3C552.964 4.65685 551.621 6 549.964 6H541.75ZM566.393 6C564.736 6 563.393 4.65685 563.393 3C563.393 1.34315 564.736 0 566.393 0H591.036C592.693 0 594.036 1.34315 594.036 3C594.036 4.65685 592.693 6 591.036 6H566.393ZM623.893 6C622.236 6 620.893 4.65685 620.893 3C620.893 1.34315 622.236 0 623.893 0H628V3V6H623.893Z" fill="#F26100"/>
</svg>
