<svg width="40" height="40" viewBox="0 0 73 73" fill="none" xmlns="http://www.w3.org/2000/svg">
<path d="M42.3872 9.41943H44.742V11.7743H42.3872V9.41943Z" fill="#2F4858"/>
<path d="M37.6775 9.41943H40.0323V11.7743H37.6775V9.41943Z" fill="#2F4858"/>
<path d="M28.2581 18.8384H30.6129V21.1932H28.2581V18.8384Z" fill="#2F4858"/>
<path d="M32.9678 18.8384H35.3226V21.1932H32.9678V18.8384Z" fill="#2F4858"/>
<path d="M42.3872 28.2583H44.742V30.6131H42.3872V28.2583Z" fill="#2F4858"/>
<path d="M37.6775 28.2583H40.0323V30.6131H37.6775V28.2583Z" fill="#2F4858"/>
<path d="M28.2581 37.6772H30.6129V40.0321H28.2581V37.6772Z" fill="#2F4858"/>
<path d="M32.9678 37.6772H35.3226V40.0321H32.9678V37.6772Z" fill="#2F4858"/>
<path d="M9.41919 18.8384H11.774V21.1932H9.41919V18.8384Z" fill="#2F4858"/>
<path d="M14.1292 18.8384H16.484V21.1932H14.1292V18.8384Z" fill="#2F4858"/>
<path d="M9.41919 37.6772H11.774V40.0321H9.41919V37.6772Z" fill="#2F4858"/>
<path d="M14.1292 37.6772H16.484V40.0321H14.1292V37.6772Z" fill="#2F4858"/>
<path d="M67.1129 9.41935H54.1613V5.8871C54.1613 2.64095 51.5203 0 48.2742 0H24.7258C21.4797 0 18.8387 2.64095 18.8387 5.8871V9.41935H5.8871C2.64095 9.41935 0 12.0603 0 15.3065V48.2742C0 51.5203 2.64095 54.1613 5.8871 54.1613H15.5431C15.5396 54.1766 15.5384 54.1931 15.536 54.2096C10.7852 54.6864 7.06452 58.7073 7.06452 63.5806C7.06452 68.7742 11.2903 73 16.4839 73H56.5161C61.7097 73 65.9355 68.7742 65.9355 63.5806C65.9355 58.785 62.3302 54.823 57.69 54.2425C57.69 54.2155 57.6935 54.1884 57.6935 54.1613H67.1129C70.359 54.1613 73 51.5203 73 48.2742V15.3065C73 12.0603 70.359 9.41935 67.1129 9.41935ZM65.9355 32.9677H54.1613V25.9032H65.9355V32.9677ZM65.9355 35.3226V42.3871H54.1613V35.3226H65.9355ZM65.9355 23.5484H54.1613V16.4839H65.9355V23.5484ZM24.7258 2.35484H48.2742C50.2216 2.35484 51.8064 3.93965 51.8064 5.8871V42.7085C51.0706 42.1775 50.284 41.7171 49.4516 41.3333V7.06452C49.4516 5.76582 48.3955 4.70968 47.0968 4.70968H25.9032C24.6045 4.70968 23.5484 5.76582 23.5484 7.06452V45.2894C22.7207 45.5485 21.933 45.897 21.1935 46.3232V5.8871C21.1935 3.93965 22.7784 2.35484 24.7258 2.35484ZM32.1259 45.9005C30.5552 45.154 28.8374 44.7419 27.0806 44.7419C26.6839 44.7419 26.2906 44.7643 25.9032 44.8032V35.3226H47.0968V40.4973C45.9653 40.2042 44.7867 40.0323 43.5645 40.0323C38.8595 40.0323 34.695 42.353 32.1259 45.9005ZM47.0968 14.129H25.9032V7.06452H47.0968V14.129ZM25.9032 16.4839H47.0968V23.5484H25.9032V16.4839ZM25.9032 25.9032H47.0968V32.9677H25.9032V25.9032ZM18.8387 23.5484H7.06452V16.4839H18.8387V23.5484ZM7.06452 25.9032H18.8387V32.9677H7.06452V25.9032ZM7.06452 35.3226H18.8387V42.3871H7.06452V35.3226ZM2.35484 48.2742V15.3065C2.35484 13.359 3.93965 11.7742 5.8871 11.7742H18.8387V14.129H7.06452C5.76582 14.129 4.70968 15.1852 4.70968 16.4839V51.5898C3.34269 51.1024 2.35484 49.8072 2.35484 48.2742ZM7.06452 51.8064V44.7419H18.8387V48.1129C17.7708 49.1596 16.8995 50.4077 16.2896 51.8064H7.06452ZM63.5806 63.5806C63.5806 67.4767 60.4122 70.6452 56.5161 70.6452H16.4839C12.5878 70.6452 9.41935 67.4767 9.41935 63.5806C9.41935 59.6846 12.5878 56.5161 16.4839 56.5161C20.38 56.5161 23.5484 59.6846 23.5484 63.5806H25.9032C25.9032 58.8816 22.4404 54.9867 17.9356 54.2849C18.9423 50.1157 22.6783 47.0968 27.0806 47.0968C28.4076 47.0968 29.7098 47.3829 30.9096 47.9174C29.9747 49.8025 29.4355 51.9183 29.4355 54.1613H31.7903C31.7903 47.669 37.0722 42.3871 43.5645 42.3871C50.0568 42.3871 55.3387 47.669 55.3387 54.1613C55.3387 54.1884 55.3352 54.2155 55.3352 54.2437C50.6985 54.8277 47.0968 58.7874 47.0968 63.5806H49.4516C49.4516 59.6846 52.62 56.5161 56.5161 56.5161C60.4122 56.5161 63.5806 59.6846 63.5806 63.5806ZM57.4804 51.8064C57.0342 49.1655 55.8579 46.7753 54.1613 44.8467V44.7419H65.9355V51.8064H57.4804ZM70.6452 48.2742C70.6452 49.8072 69.6573 51.1024 68.2903 51.5898V16.4839C68.2903 15.1852 67.2342 14.129 65.9355 14.129H54.1613V11.7742H67.1129C69.0603 11.7742 70.6452 13.359 70.6452 15.3065V48.2742Z" fill="#2F4858"/>
<path d="M61.2258 18.8384H63.5807V21.1932H61.2258V18.8384Z" fill="#2F4858"/>
<path d="M56.5161 18.8384H58.871V21.1932H56.5161V18.8384Z" fill="#2F4858"/>
<path d="M61.2258 37.6772H63.5807V40.0321H61.2258V37.6772Z" fill="#2F4858"/>
<path d="M56.5161 37.6772H58.871V40.0321H56.5161V37.6772Z" fill="#2F4858"/>
<path d="M50.5562 53.1508L52.8875 52.8176C52.2293 48.2127 48.2214 44.7417 43.5647 44.7417C42.651 44.7417 41.7456 44.8724 40.8743 45.1314L41.5454 47.3897C42.1989 47.1954 42.8782 47.0965 43.5647 47.0965C47.0581 47.0965 50.064 49.6986 50.5562 53.1508Z" fill="#2F4858"/>
<path d="M16.4839 65.9355H18.8387V68.2904H16.4839V65.9355Z" fill="#2F4858"/>
<path d="M21.1936 65.9355H23.5484V68.2904H21.1936V65.9355Z" fill="#2F4858"/>
<path d="M25.9033 65.9355H28.2582V68.2904H25.9033V65.9355Z" fill="#2F4858"/>
</svg>
