<svg width="60" height="60" viewBox="0 0 60 60" fill="none" xmlns="http://www.w3.org/2000/svg">
<g clip-path="url(#clip0_297_407)">
<path d="M59 51V58C59 58.55 58.55 59 58 59H2C1.45 59 1 58.55 1 58V11C1 10.45 1.45 10 2 10H18C18.55 10 19 10.45 19 11V19C19 19.55 18.55 20 18 20H28.08L41 31.67V39C41 39.55 40.55 40 40 40H51C51.55 40 52 40.45 52 41V49C52 49.55 51.55 50 51 50H58C58.55 50 59 50.45 59 51Z" fill="#EB7548"/>
<path d="M42.927 20.7979L48.797 26.6689C49.896 27.7689 49.375 29.6509 47.856 30.0139L27.459 34.9429C26.015 35.2879 24.71 33.9829 25.055 32.5389L29.984 12.1399C30.347 10.6209 32.23 10.0989 33.329 11.1989L39.199 17.0699L42.926 20.7969L42.927 20.7979Z" fill="#D3D3D3"/>
<path d="M50.8629 12.8632L39.201 24.5262C38.176 25.5512 36.499 25.5512 35.474 24.5262C34.449 23.5012 34.449 21.8242 35.474 20.7992L47.136 9.13623L50.8629 12.8632Z" fill="#BFBFBF"/>
<path d="M59 4.94999C59 5.96499 58.605 6.97899 57.84 7.75699L49.446 16.139C48.932 16.653 48.102 16.653 47.588 16.139L43.859 12.41C43.345 11.896 43.345 11.066 43.859 10.552L52.24 2.15699C53.795 0.614988 56.285 0.614988 57.84 2.15699C58.604 2.93399 59 3.94899 59 4.95099V4.94999Z" fill="#596466"/>
<path d="M48.518 17.5241C49.136 17.5241 49.717 17.2831 50.153 16.8461L58.555 8.45706C59.487 7.50706 60 6.26206 60 4.94906C60 3.66306 59.473 2.38906 58.545 1.44506C56.613 -0.470937 53.47 -0.472937 51.532 1.44906L43.151 9.84406C42.504 10.4921 42.33 11.4301 42.613 12.2431L39.2 15.6571L34.037 10.4931C33.259 9.71506 32.163 9.43006 31.104 9.72706C30.049 10.0251 29.268 10.8401 29.013 11.9061L27.299 19.0001H20V11.0001C20 9.89706 19.103 9.00006 18 9.00006H2C0.897 9.00006 0 9.89706 0 11.0001V24.0001C0 24.5531 0.447 25.0001 1 25.0001C1.553 25.0001 2 24.5531 2 24.0001V21.0001H7V29.0001H2V28.0001C2 27.4471 1.553 27.0001 1 27.0001C0.447 27.0001 0 27.4471 0 28.0001V58.0001C0 59.1031 0.897 60.0001 2 60.0001H58C59.103 60.0001 60 59.1031 60 58.0001V51.0001C60 49.8971 59.103 49.0001 58 49.0001H53V41.0001C53 39.8971 52.103 39.0001 51 39.0001H42V32.4591L48.089 30.9871C49.156 30.7311 49.972 29.9491 50.271 28.8941C50.57 27.8351 50.284 26.7401 49.505 25.9611L44.341 20.7971L47.753 17.3851C47.996 17.4711 48.252 17.5241 48.518 17.5241ZM44.568 11.2561L52.945 2.86506C53.524 2.29106 54.285 2.00506 55.045 2.00506C55.801 2.00506 56.557 2.28906 57.129 2.85706C57.683 3.42106 58.001 4.18406 58.001 4.95006C58.001 5.73506 57.691 6.48306 57.136 7.05006L48.74 15.4331C48.588 15.5851 48.452 15.5861 48.298 15.4331L44.569 11.7041C44.445 11.5801 44.445 11.3841 44.569 11.2591L44.568 11.2561ZM2.001 10.9991H18.001V18.9991H2L2.001 10.9991ZM9.001 20.9991H26.817L24.884 28.9991H9.002L9.001 20.9991ZM18.001 30.9991V38.9991H2V30.9991H18.001ZM40.001 50.9991V57.9991H20.001V50.9991H40.001ZM9.001 48.9991V40.9991H29.001V48.9991H9H9.001ZM2.001 48.9991V40.9991H7.001V48.9991H2.001ZM2.001 50.9991H18.001V57.9991H2L2.001 50.9991ZM58.001 50.9991V57.9991H42.001V50.9991H58.001ZM51.001 40.9991V48.9991H31.001V40.9991H51.001ZM40.001 38.9991H20.001V30.9991H24.4L24.084 32.3071C23.841 33.3271 24.139 34.3771 24.881 35.1191C25.452 35.6901 26.207 35.9991 26.991 35.9991C27.224 35.9991 27.461 35.9721 27.696 35.9151L40.001 32.9411V38.9991ZM48.092 27.3751C48.465 27.7481 48.394 28.1811 48.347 28.3501C48.299 28.5171 48.134 28.9191 47.622 29.0421L27.228 33.9711C26.739 34.0871 26.413 33.8231 26.294 33.7051C26.176 33.5861 25.912 33.2581 26.027 32.7741L30.958 12.3731C31.08 11.8631 31.481 11.6981 31.648 11.6511C31.817 11.6041 32.248 11.5311 32.623 11.9061L37.786 17.0701L34.766 20.0911C33.369 21.4891 33.369 23.8371 34.766 25.2321C36.165 26.6291 38.511 26.6301 39.907 25.2321L42.927 22.2121L48.091 27.3761L48.092 27.3751ZM38.494 23.8171C37.881 24.4301 36.795 24.4301 36.182 23.8171C35.875 23.5101 35.705 23.0991 35.705 22.6611C35.705 22.2231 35.875 21.8111 36.182 21.5051L43.861 13.8241L46.173 16.1371L38.494 23.8171Z" fill="#1E1E1E"/>
</g>
<defs>
<clipPath id="clip0_297_407">
<rect width="60" height="60" fill="white"/>
</clipPath>
</defs>
</svg>
