<svg width="73" height="73" viewBox="0 0 73 73" fill="none" xmlns="http://www.w3.org/2000/svg">
<path d="M66.1951 15.3116C67.132 14.151 67.6053 12.6842 67.5232 11.1948C67.4412 9.70547 66.8097 8.29947 65.751 7.24879L62.3091 3.80808C62.0766 3.58826 61.7688 3.46578 61.4489 3.46578C61.1289 3.46578 60.8211 3.58826 60.5887 3.80808L59.7285 4.66826L56.2866 1.22754L54.5662 2.9479L58.0082 6.38861L56.2878 8.10897L52.8459 4.66826L51.1255 6.38861L54.5674 9.83055L53.706 10.6907C53.478 10.9189 53.3498 11.2283 53.3498 11.5509C53.3498 11.8735 53.478 12.1829 53.706 12.4111L57.148 15.8518C58.0683 16.783 59.268 17.3876 60.5641 17.5735C61.8601 17.7593 63.1813 17.5162 64.3263 16.8811C68.4025 22.6093 70.5845 29.4693 70.5665 36.4998C70.5629 42.0905 69.1842 47.5945 66.552 52.5269C63.9198 57.4592 60.1149 61.6684 55.4725 64.7836C50.8301 67.8989 45.4927 69.8244 39.9307 70.3907C34.3687 70.9569 28.7528 70.1465 23.5779 68.0307L22.6556 70.2816C28.2 72.5492 34.2171 73.4183 40.1766 72.812C46.1361 72.2057 51.8549 70.1428 56.8291 66.8051C61.8032 63.4674 65.88 58.9573 68.7 53.6724C71.52 48.3874 72.9966 42.49 72.9998 36.4998C73.0194 28.8967 70.6379 21.4815 66.1951 15.3116ZM58.8683 14.1314L56.2866 11.5509L61.4489 6.38861L64.0294 8.97037C64.378 9.30707 64.6561 9.70982 64.8474 10.1551C65.0387 10.6004 65.1394 11.0794 65.1436 11.564C65.1478 12.0487 65.0554 12.5293 64.8719 12.9779C64.6884 13.4265 64.4174 13.834 64.0746 14.1767C63.7319 14.5194 63.3244 14.7904 62.8758 14.9739C62.4273 15.1575 61.9466 15.2498 61.462 15.2456C60.9774 15.2414 60.4984 15.1407 60.0531 14.9494C59.6078 14.7581 59.205 14.4801 58.8683 14.1314Z" fill="#2F4858"/>
<path d="M6.8049 57.6879C5.86793 58.8485 5.39469 60.3154 5.47672 61.8047C5.55875 63.2941 6.19022 64.7001 7.24898 65.7507L10.6909 69.1914C10.9234 69.4113 11.2312 69.5337 11.5511 69.5337C11.871 69.5337 12.1788 69.4113 12.4113 69.1914L13.2715 68.3313L16.7134 71.772L18.4337 70.0516L14.9918 66.6109L16.7122 64.8905L20.1541 68.3313L21.8745 66.6109L18.4325 63.169L19.2939 62.3088C19.522 62.0806 19.6501 61.7712 19.6501 61.4486C19.6501 61.126 19.522 60.8166 19.2939 60.5884L15.852 57.1477C14.9316 56.2165 13.7319 55.6119 12.4359 55.4261C11.1399 55.2402 9.81865 55.4834 8.67369 56.1184C4.59749 50.3902 2.4155 43.5303 2.43344 36.4998C2.43708 30.909 3.81574 25.405 6.44795 20.4727C9.08015 15.5403 12.8851 11.3311 17.5275 8.21588C22.1699 5.10067 27.5073 3.1751 33.0693 2.60885C38.6312 2.0426 44.2471 2.85305 49.4221 4.96879L50.3443 2.71797C44.7999 0.450279 38.7828 -0.418733 32.8234 0.187524C26.8639 0.793782 21.1451 2.85669 16.1709 6.19443C11.1968 9.53218 7.12002 14.0423 4.30001 19.3272C1.48 24.6121 0.00332248 30.5096 0.000119106 36.4998C-0.0194057 44.1028 2.36204 51.518 6.8049 57.6879ZM14.1316 58.8681L16.7134 61.4486L11.5511 66.6109L8.97056 64.0292C8.62195 63.6925 8.34389 63.2897 8.15259 62.8444C7.9613 62.3991 7.86061 61.9201 7.8564 61.4355C7.85219 60.9508 7.94454 60.4702 8.12807 60.0216C8.31159 59.5731 8.58261 59.1655 8.92532 58.8228C9.26803 58.4801 9.67555 58.2091 10.1241 58.0256C10.5727 57.8421 11.0533 57.7497 11.538 57.7539C12.0226 57.7581 12.5016 57.8588 12.9469 58.0501C13.3922 58.2414 13.7949 58.5195 14.1316 58.8681Z" fill="#2F4858"/>
<path d="M13.3834 36.4999C13.3834 41.0719 14.7392 45.5412 17.2793 49.3427C19.8193 53.1442 23.4297 56.1071 27.6537 57.8568C31.8777 59.6064 36.5256 60.0642 41.0098 59.1722C45.494 58.2803 49.6129 56.0786 52.8459 52.8457C56.0788 49.6128 58.2804 45.4938 59.1724 41.0097C60.0643 36.5255 59.6065 31.8775 57.8569 27.6535C56.1073 23.4295 53.1443 19.8192 49.3428 17.2791C45.5414 14.7391 41.072 13.3833 36.5 13.3833C30.3712 13.3901 24.4953 15.8277 20.1616 20.1615C15.8278 24.4952 13.3902 30.371 13.3834 36.4999ZM57.1832 36.4999C57.1832 40.5906 55.9702 44.5895 53.6975 47.9908C51.4248 51.3922 48.1945 54.0432 44.4151 55.6087C40.6357 57.1741 36.477 57.5837 32.4649 56.7857C28.4527 55.9876 24.7673 54.0177 21.8747 51.1251C18.9821 48.2325 17.0122 44.5471 16.2142 40.535C15.4161 36.5228 15.8257 32.3641 17.3912 28.5847C18.9566 24.8054 21.6076 21.5751 25.009 19.3024C28.4103 17.0297 32.4092 15.8166 36.5 15.8166C41.9836 15.8227 47.2409 18.0038 51.1185 21.8814C54.996 25.7589 57.1771 31.0162 57.1832 36.4999Z" fill="#2F4858"/>
<path d="M35.4111 23.7892L28.1111 38.3891C28.0184 38.5747 27.9747 38.7808 27.984 38.988C27.9934 39.1952 28.0556 39.3966 28.1647 39.573C28.2738 39.7494 28.4262 39.8949 28.6074 39.9959C28.7886 40.0968 28.9926 40.1497 29.2 40.1496H35.2833V48.6663C35.2834 48.9402 35.3759 49.2062 35.5459 49.421C35.7159 49.6359 35.9535 49.787 36.2201 49.8501C36.487 49.9133 36.7675 49.8845 37.0159 49.7683C37.2644 49.6521 37.4663 49.4554 37.5889 49.2101L44.8889 34.6102C44.9816 34.4246 45.0253 34.2185 45.0159 34.0113C45.0065 33.8041 44.9443 33.6027 44.8352 33.4263C44.7261 33.2499 44.5737 33.1043 44.3925 33.0034C44.2113 32.9025 44.0074 32.8496 43.7999 32.8497H37.7166V24.333C37.7169 24.0587 37.6245 23.7924 37.4543 23.5772C37.2842 23.3621 37.0463 23.2107 36.7793 23.1477C36.5123 23.0848 36.2319 23.1138 35.9835 23.2303C35.7352 23.3467 35.5334 23.5437 35.4111 23.7892ZM41.8314 35.283L37.7166 43.5125V38.933C37.7166 38.6103 37.5885 38.3008 37.3603 38.0727C37.1321 37.8445 36.8227 37.7163 36.5 37.7163H31.1686L35.2833 29.4868V34.0663C35.2833 34.389 35.4115 34.6985 35.6397 34.9266C35.8678 35.1548 36.1773 35.283 36.5 35.283H41.8314Z" fill="#2F4858"/>
</svg>
