<svg width="76" height="76" viewBox="0 0 76 76" fill="none" xmlns="http://www.w3.org/2000/svg">
<path d="M73.1211 27.5458C73.1226 29.5459 72.8415 31.5362 72.286 33.4576L74.6911 34.1547C75.3125 32.0068 75.627 29.7818 75.6253 27.5458C75.6253 16.3521 68.0156 6.81235 57.1204 4.34668L56.5676 6.78824C66.1595 8.95952 73.1211 17.6892 73.1211 27.5458Z" fill="#2F4858"/>
<path d="M28.9782 34.1553L31.3833 33.4573C30.8282 31.536 30.5476 29.5458 30.5501 27.5459C30.5501 18.1161 36.8717 9.70367 45.9224 7.08994L45.2278 4.68359C35.1116 7.60643 28.0459 17.0071 28.0459 27.5459C28.0433 29.782 28.3572 32.0072 28.9782 34.1553Z" fill="#2F4858"/>
<path d="M68.1128 27.5458C68.1128 28.3237 68.0569 29.1005 67.9454 29.8703L70.4239 30.2303C70.5525 29.3412 70.617 28.4441 70.617 27.5458C70.617 19.3002 65.1 11.899 57.2011 9.54834L56.4871 11.9486C59.8381 12.9633 62.7756 15.0257 64.8681 17.833C66.9606 20.6403 68.0978 24.0445 68.1128 27.5458Z" fill="#2F4858"/>
<path d="M45.7795 12.4307L44.844 10.1074C40.4974 11.8534 36.9594 15.1596 34.9234 19.3781C32.8873 23.5967 32.4998 28.4234 33.837 32.9127L36.236 32.1962C35.078 28.3049 35.4147 24.1214 37.18 20.4653C38.9453 16.8092 42.012 13.9439 45.7795 12.4307Z" fill="#2F4858"/>
<path d="M1.75223 67.6127H21.7856V72.621H18.0293V75.1252H33.0543V72.621H29.2981V67.6127H41.8189C42.0817 67.6127 42.3378 67.5301 42.5511 67.3764C42.7643 67.2228 42.9237 67.006 43.0069 66.7567L47.3751 53.6499L46.8609 72.621H44.3231V75.1252H59.3481V72.621H56.8105L56.2237 50.8973C61.1057 49.9899 65.5805 47.575 69.0188 43.9923L67.2079 42.262C64.2276 45.3702 60.3731 47.4994 56.1553 48.3674L56.0869 45.8345C59.4443 45.0649 62.5217 43.3772 64.9756 40.96L63.2197 39.1736C61.2184 41.1461 58.7354 42.5602 56.0179 43.2753L55.7391 32.9575L71.8284 42.2525C72.2025 42.4602 72.6233 42.5694 73.0512 42.5697C73.5275 42.5632 73.9929 42.4261 74.3966 42.1734C74.8004 41.9207 75.1272 41.5621 75.3413 41.1367C75.5554 40.7112 75.6488 40.2352 75.6112 39.7603C75.5736 39.2855 75.4064 38.8301 75.128 38.4436C74.532 37.6403 73.9413 36.9158 73.3258 36.2329C73.2978 36.1937 73.2676 36.1561 73.2353 36.1204C71.9866 34.7413 70.6171 33.4764 69.1433 32.341C65.4761 29.5177 61.218 27.56 56.6874 26.6144C56.5643 25.909 56.2909 25.2384 55.8858 24.6479C55.4808 24.0575 54.9535 23.561 54.3398 23.1922V2.51648C54.3324 1.84264 54.058 1.19925 53.5768 0.727487C53.0956 0.255728 52.4469 -0.00586825 51.773 9.99224e-05C51.2712 -0.0016714 50.7796 0.142114 50.3578 0.414039C49.936 0.685964 49.6021 1.07436 49.3965 1.53218C48.9383 2.58344 48.5426 3.66092 48.2118 4.75896C47.6516 6.53709 47.2622 8.36459 47.0489 10.2166C46.5083 14.7827 47.0027 19.4118 48.4952 23.7608C47.9718 24.2279 47.5528 24.8002 47.2654 25.4402C46.978 26.0801 46.8287 26.7735 46.8273 27.4751C46.8273 27.5092 46.8367 27.5406 46.8373 27.5744L33.8829 35.0585H11.7689C11.5061 35.0584 11.25 35.1411 11.0368 35.2947C10.8236 35.4483 10.6641 35.6651 10.581 35.9144L0.564315 65.9645C0.501538 66.1527 0.484397 66.3531 0.514304 66.5493C0.544211 66.7455 0.620309 66.9317 0.736327 67.0927C0.852344 67.2536 1.00496 67.3847 1.18159 67.4752C1.35822 67.5656 1.55381 67.6127 1.75223 67.6127ZM54.2695 27.4751C54.2626 27.9619 54.112 28.4359 53.8365 28.8373C53.561 29.2388 53.1729 29.5498 52.7211 29.7314C52.2694 29.9129 51.774 29.9568 51.2973 29.8576C50.8206 29.7584 50.3839 29.5205 50.0421 29.1737C49.7002 28.827 49.4686 28.387 49.3761 27.9089C49.2837 27.4309 49.3347 26.9362 49.5226 26.487C49.7105 26.0378 50.0271 25.6543 50.4324 25.3845C50.8378 25.1148 51.3138 24.9709 51.8007 24.9709C52.46 24.9761 53.0903 25.2427 53.5532 25.7122C54.016 26.1818 54.2737 26.8158 54.2695 27.4751ZM28.046 65.1085H23.5229L25.1924 60.1002H32.5692L30.8997 65.1085H28.046ZM38.5479 50.0835L40.2174 45.0751H47.5942L45.9247 50.0835H38.5479ZM45.09 52.5877L43.4205 57.596H36.0437L37.7132 52.5877H45.09ZM35.908 50.0835H28.5312L30.2007 45.0751H37.5775L35.908 50.0835ZM35.0733 52.5877L33.4038 57.596H26.027L27.6965 52.5877H35.0733ZM35.209 60.1002H42.5858L40.9163 65.1085H33.5395L35.209 60.1002ZM50.0811 46.2404C50.6612 46.2933 51.246 46.3272 51.8356 46.3272C52.4194 46.3272 53.0065 46.2934 53.5931 46.2386L53.6607 48.7402C52.4473 48.8496 51.2266 48.8496 50.0132 48.7402L50.0811 46.2404ZM50.6668 43.7769L53.0235 36.7067C53.0863 36.5185 53.1034 36.318 53.0735 36.1218C53.0436 35.9257 52.9675 35.7394 52.8515 35.5785C52.7355 35.4175 52.5829 35.2864 52.4063 35.196C52.2296 35.1056 52.034 35.0584 51.8356 35.0585H50.3812L50.4575 32.326C50.4696 32.3127 50.4813 32.2989 50.4932 32.2854C51.3816 32.5604 52.334 32.5487 53.2153 32.2518L53.5251 43.7251C52.5756 43.8235 51.6193 43.8408 50.6668 43.7769ZM47.8779 35.0585H47.7203C47.7754 35.0101 47.8277 34.9583 47.8823 34.9095L47.8779 35.0585ZM50.0983 37.5626L48.4288 42.571H41.052L42.7215 37.5626H50.0983ZM38.4122 42.571H31.0354L32.7049 37.5626H40.0817L38.4122 42.571ZM28.3955 42.571H21.0187L22.6882 37.5626H30.065L28.3955 42.571ZM27.5608 45.0751L25.8913 50.0835H18.5145L20.184 45.0751H27.5608ZM15.8746 50.0835H8.49784L10.1673 45.0751H17.5441L15.8746 50.0835ZM15.04 52.5877L13.3705 57.596H5.99367L7.66316 52.5877H15.04ZM17.6798 52.5877H25.0567L23.3872 57.596H16.0103L17.6798 52.5877ZM22.5525 60.1002L20.883 65.1085H13.5062L15.1757 60.1002H22.5525ZM26.7939 72.621H24.2898V67.6127H26.7939V72.621ZM49.3657 72.621L49.9448 51.2501C50.5709 51.3022 51.2006 51.3356 51.8353 51.3356C52.4699 51.3356 53.103 51.3019 53.7281 51.25L54.3055 72.621H49.3657ZM71.2913 37.7057C71.3192 37.7444 71.3491 37.7816 71.3811 37.817C71.997 38.4957 72.5781 39.2052 73.1223 39.9427L73.0556 40.0699L55.9647 30.196C56.176 29.8611 56.3468 29.5023 56.4733 29.127C60.5239 30.0184 64.3277 31.793 67.6131 34.3243C68.9353 35.3422 70.166 36.4736 71.2913 37.7057ZM49.5363 10.5084C49.7327 8.80562 50.0911 7.12548 50.6067 5.4908C50.9108 4.48162 51.2744 3.49131 51.6955 2.52509L51.8356 2.51648V22.4702C51.8237 22.4702 51.8128 22.4667 51.8007 22.4667C51.4437 22.4683 51.0879 22.5088 50.7396 22.5874C49.4643 18.6966 49.0536 14.5743 49.5363 10.5084ZM47.5575 30.0501C47.7596 30.3978 48.0027 30.72 48.2816 31.0097C46.8964 32.5279 45.3454 33.8859 43.6576 35.0585H38.8894L47.5575 30.0501ZM12.6713 37.5626H20.0483L18.3788 42.571H11.002L12.6713 37.5626ZM5.15884 60.1002H12.5358L10.8663 65.1085H3.4895L5.15884 60.1002Z" fill="#2F4858"/>
<path d="M25.5416 10.0167C27.8653 10.0141 30.0931 9.08982 31.7363 7.44671C33.3794 5.80359 34.3036 3.5758 34.3062 1.25208C34.3062 0.920011 34.1743 0.601538 33.9395 0.366727C33.7047 0.131916 33.3862 0 33.0541 0C30.7304 0.00260978 28.5026 0.926858 26.8595 2.56997C25.2164 4.21309 24.2922 6.44088 24.2896 8.76459C24.2896 9.09667 24.4215 9.41514 24.6563 9.64995C24.8911 9.88476 25.2096 10.0167 25.5416 10.0167ZM31.6413 2.66491C31.3748 3.80542 30.7946 4.8487 29.9664 5.6769C29.1382 6.5051 28.095 7.08523 26.9545 7.35177C27.221 6.21125 27.8011 5.16798 28.6293 4.33978C29.4575 3.51158 30.5008 2.93145 31.6413 2.66491Z" fill="#2F4858"/>
<path d="M66.8605 51.3354C66.5284 51.3354 66.2099 51.4674 65.9751 51.7022C65.7403 51.937 65.6084 52.2555 65.6084 52.5875C65.611 54.9112 66.5353 57.139 68.1784 58.7822C69.8215 60.4253 72.0493 61.3495 74.373 61.3521C74.7051 61.3521 75.0235 61.2202 75.2584 60.9854C75.4932 60.7506 75.6251 60.4321 75.6251 60.1C75.6225 57.7763 74.6982 55.5485 73.0551 53.9054C71.412 52.2623 69.1842 51.3381 66.8605 51.3354ZM68.2733 54.0004C69.4138 54.2669 70.4571 54.847 71.2853 55.6752C72.1135 56.5034 72.6936 57.5467 72.9602 58.6872C71.8197 58.4207 70.7764 57.8405 69.9482 57.0123C69.12 56.1841 68.5399 55.1409 68.2733 54.0004Z" fill="#2F4858"/>
<path d="M16.7773 25.0421C17.1094 25.0421 17.4278 24.9102 17.6626 24.6753C17.8975 24.4405 18.0294 24.1221 18.0294 23.79C18.0268 21.4663 17.1025 19.2385 15.4594 17.5954C13.8163 15.9522 11.5885 15.028 9.26478 15.0254C8.93271 15.0254 8.61423 15.1573 8.37942 15.3921C8.14461 15.6269 8.0127 15.9454 8.0127 16.2775C8.01531 18.6012 8.93955 20.829 10.5827 22.4721C12.2258 24.1152 14.4536 25.0395 16.7773 25.0421ZM15.3645 22.3772C14.2239 22.1106 13.1807 21.5305 12.3525 20.7023C11.5243 19.8741 10.9441 18.8308 10.6776 17.6903C11.8181 17.9568 12.8614 18.537 13.6896 19.3652C14.5178 20.1934 15.0979 21.2366 15.3645 22.3772Z" fill="#2F4858"/>
</svg>
