<svg width="76" height="73" viewBox="0 0 76 73" fill="none" xmlns="http://www.w3.org/2000/svg">
<path fill-rule="evenodd" clip-rule="evenodd" d="M42.5426 60.6786L49.6555 72.9998L53.7345 68.0107L61.1002 69.1737L53.0266 55.2175L42.5426 60.6786ZM33.2891 60.6786L26.1762 72.9998L22.0972 68.0107L14.7315 69.1737L22.8052 55.2007L33.2891 60.6786Z" fill="#CCCC31"/>
<path fill-rule="evenodd" clip-rule="evenodd" d="M42.5426 60.6789L45.408 65.6343C49.2341 64.2522 52.5546 61.8082 55.0323 58.69L53.0266 55.2178L42.5426 60.6789ZM30.4406 65.6343C26.6144 64.2522 23.2939 61.8082 20.8162 58.69L22.822 55.2178L33.306 60.6957L30.4406 65.6343Z" fill="#A5A636"/>
<path fill-rule="evenodd" clip-rule="evenodd" d="M37.9243 24.8276C49.1162 24.8276 58.1843 33.8958 58.1843 45.0876C58.1843 56.2795 49.1162 65.3645 37.9243 65.3645C26.7324 65.3645 17.6475 56.2964 17.6475 45.1045C17.6475 33.9126 26.7324 24.8276 37.9243 24.8276Z" fill="#E6E6E6"/>
<path fill-rule="evenodd" clip-rule="evenodd" d="M37.9243 33.1709C44.5147 33.1709 49.8578 38.514 49.8578 45.1044C49.8578 51.6948 44.5147 57.0379 37.9243 57.0379C31.3339 57.0379 25.9908 51.6948 25.9908 45.1044C25.9908 38.514 31.3339 33.1709 37.9243 33.1709Z" fill="#CCCC31"/>
<path d="M37.9243 31.8228C41.5987 31.8228 44.9192 33.306 47.3126 35.7163C49.7229 38.1266 51.2062 41.4471 51.2062 45.1047C51.2062 48.7623 49.7229 52.0827 47.3126 54.493C44.9023 56.9033 41.5818 58.3866 37.9243 58.3866C34.2667 58.3866 30.9462 56.9033 28.5359 54.493C26.1256 52.0827 24.6423 48.7623 24.6423 45.1047C24.6423 41.4302 26.1256 38.1098 28.5359 35.7163C30.9293 33.306 34.2498 31.8228 37.9243 31.8228ZM45.408 37.621C43.5033 35.7163 40.8571 34.5196 37.9243 34.5196C35.0083 34.5196 32.3452 35.6995 30.4405 37.621C28.519 39.5425 27.3392 42.1887 27.3392 45.1047C27.3392 48.0206 28.519 50.6669 30.4405 52.5884C32.3452 54.5099 34.9914 55.6898 37.9243 55.6898C40.8402 55.6898 43.5033 54.5099 45.408 52.5884C47.3295 50.6669 48.5093 48.0375 48.5093 45.1047C48.5093 42.1719 47.3126 39.5256 45.408 37.621Z" fill="#FDB614"/>
<path fill-rule="evenodd" clip-rule="evenodd" d="M9.23667 12.2369L12.0515 18.0857L18.4733 18.9621L13.7876 23.4456L14.9337 29.8338L9.21981 26.7661L3.50589 29.8338L4.65204 23.4456L0 18.9453L6.42184 18.0688L9.23667 12.2369ZM37.9243 0L40.7391 5.84876L47.1609 6.72524L42.4752 11.2087L43.6213 17.5969L37.9243 14.5292L32.2104 17.5969L33.3565 11.2087L28.6708 6.72524L35.0926 5.84876L37.9243 0ZM66.595 12.2369L69.4098 18.0857L75.8317 18.9621L71.1459 23.4456L72.2921 29.8338L66.5782 26.7661L60.8642 29.8338L62.0104 23.4456L57.3246 18.9621L63.7465 18.0857L66.595 12.2369Z" fill="#FDB614"/>
<path fill-rule="evenodd" clip-rule="evenodd" d="M9.23667 26.7492L3.52274 29.8168L4.68575 23.4287L0 18.9452L6.42184 18.0687L9.23667 12.2368V26.7492Z" fill="#E6A624"/>
<path fill-rule="evenodd" clip-rule="evenodd" d="M53.2119 55.5211C50.7848 58.7068 47.4475 61.1508 43.5707 62.4487C41.5313 63.1397 39.3569 63.5105 37.0815 63.5105C35.3454 63.5105 33.643 63.2914 32.0249 62.87C28.0639 61.8587 24.5749 59.6675 21.9286 56.7179C20.7993 55.4537 19.8386 54.0547 19.0464 52.5378C19.7037 54.2064 20.5802 55.774 21.6421 57.2067C24.0355 60.426 27.3729 62.9037 31.2327 64.2522C33.3228 64.9769 35.5645 65.3815 37.9074 65.3815C40.2503 65.3815 42.492 64.9769 44.5821 64.2522C48.4419 62.9037 51.7624 60.426 54.1727 57.2067C56.6841 53.8356 58.1842 49.6387 58.1842 45.1046C58.1842 41.7504 57.3752 38.5985 55.9256 35.8174C56.8358 38.1265 57.3415 40.6211 57.3415 43.2505C57.3415 47.8689 55.8076 52.1164 53.2119 55.5211Z" fill="#B3B4B4"/>
<path fill-rule="evenodd" clip-rule="evenodd" d="M37.9242 14.5292L32.2103 17.5969L33.3565 11.2087L28.6707 6.72524L35.1094 5.84876L37.9242 0V14.5292Z" fill="#E6A624"/>
<path fill-rule="evenodd" clip-rule="evenodd" d="M66.595 26.7492L60.8811 29.8168L62.0441 23.4287L57.3583 18.9452L63.7802 18.0687L66.595 12.2368V26.7492Z" fill="#E6A624"/>
<path d="M31.435 45.6945C31.0642 45.054 31.2833 44.2281 31.9238 43.8573C32.5643 43.4865 33.3902 43.7056 33.761 44.3461L35.5308 47.4138L41.8178 41.1267C42.3403 40.6042 43.2 40.6042 43.7225 41.1267C44.245 41.6493 44.245 42.5089 43.7225 43.0314L36.1882 50.5657C36.1039 50.65 36.0196 50.7174 35.9185 50.7848C35.278 51.1556 34.4521 50.9365 34.0813 50.296L31.435 45.6945Z" fill="#A5A636"/>
<path d="M30.9293 44.0934C30.5585 43.4529 30.7776 42.627 31.4181 42.2562C32.0586 41.8854 32.8845 42.1045 33.2554 42.745L35.0252 45.8127L41.3122 39.5257C41.8347 39.0032 42.6943 39.0032 43.2168 39.5257C43.7393 40.0482 43.7393 40.9078 43.2168 41.4303L35.6825 48.9646C35.5982 49.0489 35.514 49.1163 35.4128 49.1837C34.7723 49.5545 33.9464 49.3354 33.5756 48.6949L30.9293 44.0934Z" fill="white"/>
</svg>
