 <svg
        width="40"
        height="40"
        viewBox="0 0 50 49"
        fill="none"
        xmlns="http://www.w3.org/2000/svg"
      >
        <g clip-path="url(#clip0_373_76)">
          <path
            d="M36.1195 10.8149L36.1665 11.1759L35.6255 11.2879L35.5535 12.0569H36.2015L37.0635 11.9739L37.5085 11.4449L37.0355 11.2609L36.7765 10.9629L36.3875 10.3329L36.2015 9.44189L35.4705 9.59089L35.2655 9.90489V10.2589L35.6175 10.4999L36.1195 10.8149Z"
            fill="#F26100"
          />
          <path
            d="M35.4965 11.1108L35.5355 10.6288L35.1065 10.4438L34.5065 10.5828L34.0615 11.2968V11.7598H34.5805L35.4965 11.1108Z"
            fill="#F26100"
          />
          <path
            d="M23.1465 13.1578L23.0145 13.4978H22.3755V13.8278H22.5275C22.5275 13.8278 22.5365 13.8978 22.5495 13.9898L22.9415 13.9568L23.1865 13.8048L23.2505 13.4978L23.5675 13.4708L23.6925 13.2128L23.4015 13.1528L23.1465 13.1578Z"
            fill="#F26100"
          />
          <path
            d="M21.4995 13.757L21.4745 14.08L21.9375 14.041L21.9855 13.717L21.7075 13.498L21.4995 13.757Z"
            fill="#F26100"
          />
          <path
            d="M49.3065 24.061C49.2995 23.35 49.2635 22.644 49.1965 21.949C48.9715 19.632 48.4175 17.411 47.5875 15.329C47.5255 15.174 47.4685 15.017 47.4025 14.864C46.2965 12.251 44.7435 9.872 42.8425 7.819C42.7175 7.685 42.5905 7.553 42.4635 7.423C42.1045 7.05 41.7355 6.686 41.3535 6.337C37.0315 2.402 31.2915 0 24.9995 0C18.6545 0 12.8735 2.445 8.5395 6.44C7.5295 7.371 6.6015 8.387 5.7595 9.475C2.5835 13.583 0.6875 18.729 0.6875 24.312C0.6875 37.719 11.5945 48.625 25.0005 48.625C34.4305 48.625 42.6175 43.225 46.6475 35.357C47.5095 33.675 48.1805 31.882 48.6325 30.003C48.7475 29.526 48.8465 29.047 48.9325 28.562C49.1775 27.181 49.3115 25.761 49.3115 24.312C49.3125 24.228 49.3075 24.145 49.3065 24.061ZM44.7305 14.344L44.8715 14.186C45.0565 14.545 45.2295 14.91 45.3945 15.28L45.1645 15.271L44.7305 15.331V14.344ZM41.2175 10.102L41.2215 9.016C41.6035 9.421 41.9715 9.838 42.3235 10.27L41.8855 10.922L40.3545 10.908L40.2585 10.589L41.2175 10.102ZM11.8895 7.403V7.362H12.3765L12.4185 7.195H13.2155V7.543L12.9865 7.849H11.8885L11.8895 7.403ZM12.6675 8.488C12.6675 8.488 13.1545 8.405 13.1965 8.405C13.2385 8.405 13.1965 8.891 13.1965 8.891L12.0985 8.96L11.8895 8.71L12.6675 8.488ZM46.2795 18.139H44.5005L43.4165 17.332L42.2755 17.443V18.139H41.9145L41.5245 17.861L39.5485 17.36V16.08L37.0445 16.275L36.2685 16.692H35.2745L34.7875 16.643L33.5805 17.313V18.574L31.1135 20.354L31.3185 21.114H31.8185L31.6875 21.838L31.3355 21.967L31.3165 23.859L33.4485 26.287H34.3765L34.4325 26.139H36.1005L36.5815 25.694H37.5275L38.0465 26.214L39.4565 26.36L39.2695 28.235L40.8345 30.998L40.0105 32.573L40.0665 33.315L40.7155 33.962V35.746L41.5675 36.892V38.374H42.3035C38.2075 43.403 31.9735 46.624 24.9985 46.624C12.6965 46.625 2.6875 36.615 2.6875 24.312C2.6875 21.215 3.3235 18.263 4.4685 15.58V14.884L5.2665 13.915C5.5435 13.392 5.8405 12.882 6.1575 12.385L6.1935 12.79L5.2665 13.915C4.9795 14.457 4.7125 15.011 4.4695 15.58V16.85L5.3965 17.296V19.061L6.2855 20.578L7.0085 20.689L7.1015 20.169L6.2485 18.853L6.0815 17.574H6.5815L6.7925 18.89L8.0255 20.689L7.7075 21.27L8.4915 22.469L10.4385 22.951V22.636L11.2175 22.747L11.1435 23.303L11.7555 23.415L12.7005 23.673L14.0355 25.194L15.7405 25.323L15.9075 26.714L14.7405 27.53L14.6855 28.772L14.5185 29.532L16.2065 31.645L16.3355 32.369C16.3355 32.369 16.9475 32.535 17.0225 32.535C17.0965 32.535 18.3945 33.518 18.3945 33.518V37.337L18.8575 37.467L18.5425 39.229L19.3215 40.268L19.1775 42.014L20.2065 43.823L21.5275 44.977L22.8555 45.001L22.9855 44.574L22.0095 43.752L22.0655 43.344L22.2405 42.844L22.2775 42.334L21.6175 42.314L21.2845 41.896L21.8325 41.369L21.9065 40.971L21.2945 40.796L21.3305 40.426L22.2025 40.294L23.5285 39.657L23.9735 38.841L25.3645 37.061L25.0485 35.669L25.4755 34.928L26.7545 34.967L27.6155 34.285L27.8935 31.599L28.8485 30.386L29.0155 29.607L28.1445 29.328L27.5695 28.385L25.6045 28.365L24.0465 27.771L23.9725 26.66L23.4525 25.751L22.0435 25.73L21.2295 24.452L20.5065 24.099L20.4695 24.489L19.1535 24.567L18.6715 23.896L17.2985 23.617L16.1675 24.924L14.3875 24.622L14.2585 22.616L12.9595 22.394L13.4805 21.41L13.3315 20.845L11.6245 21.986L10.5505 21.855L10.1675 21.016L10.4015 20.151L10.9935 19.06L12.3565 18.37L14.9885 18.369L14.9815 19.172L15.9275 19.612L15.8525 18.24L16.5345 17.554L17.9105 16.65L18.0045 16.014L19.3765 14.586L20.8355 13.778L20.7065 13.672L21.6945 12.742L22.0565 12.838L22.2225 13.046L22.5975 12.63L22.6895 12.589L22.2785 12.531L21.8615 12.392V11.992L22.0825 11.811H22.5695L22.7925 11.909L22.9855 12.299L23.2215 12.263V12.229L23.2895 12.252L23.9735 12.147L24.0705 11.813L24.4605 11.911V12.273L24.0985 12.522H24.0995L24.1525 12.919L25.3915 13.301C25.3915 13.301 25.3925 13.306 25.3945 13.316L25.6795 13.292L25.6985 12.755L24.7165 12.308L24.6605 12.05L25.4755 11.772L25.5115 10.992L24.6595 10.473L24.6035 9.158L23.4355 9.732H23.0095L23.1215 8.731L21.5315 8.356L20.8735 8.853V10.369L19.6905 10.744L19.2165 11.732L18.7025 11.815V10.551L17.5905 10.397L17.0345 10.035L16.8105 9.216L18.7995 8.052L19.7725 7.756L19.8705 8.41L20.4125 8.382L20.4545 8.053L21.0215 7.972L21.0315 7.857L20.7875 7.756L20.7315 7.408L21.4285 7.349L21.8495 6.911L21.8725 6.879L21.8775 6.881L22.0055 6.749L23.4705 6.564L24.1185 7.114L22.4195 8.019L24.5815 8.529L24.8615 7.806H25.8065L26.1405 7.176L25.4725 7.009V6.212L23.3775 5.284L21.9315 5.451L21.1155 5.878L21.1715 6.916L20.3185 6.786L20.1875 6.212L21.0045 5.47L19.5215 5.396L19.0955 5.525L18.9105 6.025L19.4665 6.119L19.3555 6.675L18.4105 6.731L18.2625 7.101L16.8915 7.139C16.8915 7.139 16.8535 6.361 16.7985 6.361C16.7435 6.361 17.8735 6.342 17.8735 6.342L18.6905 5.544L18.2445 5.321L17.6515 5.897L16.6675 5.841L16.0745 5.025H14.8135L13.4975 6.008H14.7035L14.8135 6.361L14.5005 6.652L15.8355 6.689L16.0395 7.171L14.5365 7.115L14.4635 6.744L13.5185 6.54L13.0175 6.262L11.8925 6.271C15.5755 3.588 20.1045 2 24.9995 2C30.6415 2 35.7965 4.109 39.7295 7.574L39.4645 8.048L38.4355 8.451L38.0015 8.922L38.1015 9.471L38.6325 9.545L38.9525 10.345L39.8685 9.976L40.0195 11.046H39.7435L38.9915 10.935L38.1575 11.075L37.3505 12.215L36.1965 12.396L36.0295 13.384L36.5165 13.499L36.3755 14.134L35.2295 13.904L34.1785 14.134L33.9555 14.719L34.1375 15.947L34.7545 16.236L35.7895 16.23L36.4885 16.167L36.7015 15.611L37.7935 14.192L38.5125 14.339L39.2205 13.699L39.3525 14.199L41.0945 15.374L40.8815 15.66L40.0965 15.618L40.3985 16.046L40.8815 16.152L41.4475 15.916L41.4355 15.234L41.6865 15.108L41.4845 14.894L40.3225 14.246L40.0165 13.385H40.9825L41.2915 13.691L42.1235 14.408L42.1585 15.275L43.0205 16.193L43.3415 14.935L43.9385 14.609L44.0505 15.638L44.6335 16.278L45.7965 16.258C46.0215 16.837 46.2235 17.426 46.4005 18.027L46.2795 18.139ZM13.9485 11.046L14.5325 10.768L15.0605 10.894L14.8785 11.603L14.3085 11.784L13.9485 11.046ZM17.0475 12.715V13.174H15.7135L15.2135 13.035L15.3385 12.715L15.9795 12.45H16.8555V12.715H17.0475ZM17.6615 13.355V13.8L17.3275 14.015L16.9115 14.092C16.9115 14.092 16.9115 13.425 16.9115 13.355H17.6615ZM17.2855 13.174V12.645L17.7445 13.063L17.2855 13.174ZM17.4945 14.244V14.677L17.1755 14.997H16.4665L16.5775 14.511L16.9125 14.482L16.9815 14.315L17.4945 14.244ZM15.7285 13.355H16.4655L15.5205 14.676L15.1305 14.467L15.2145 13.911L15.7285 13.355ZM18.7465 14.092V14.524H18.0375L17.8435 14.244V13.842H17.8995L18.7465 14.092ZM18.0915 13.498L18.2935 13.286L18.6345 13.498L18.3615 13.723L18.0915 13.498ZM46.6415 19.265L46.7115 19.183C46.7405 19.309 46.7715 19.435 46.7995 19.563L46.6415 19.265Z"
            fill="#F26100"
          />
          <path
            d="M4.46948 14.884V15.58C4.71248 15.012 4.98048 14.458 5.26748 13.915L4.46948 14.884Z"
            fill="#F26100"
          />
        </g>
        <defs>
          <clipPath id="clip0_373_76">
            <rect
              width="48.625"
              height="48.625"
              fill="white"
              transform="translate(0.6875)"
            />
          </clipPath>
        </defs>
      </svg>