<svg width="81" height="59" viewBox="0 0 81 59" fill="none" xmlns="http://www.w3.org/2000/svg">
<path d="M37.4896 44.1255C36.8445 44.1255 36.3212 44.6483 36.3212 45.294V47.6565C36.3212 48.3022 36.8445 48.8249 37.4896 48.8249C38.1347 48.8249 38.6581 48.3022 38.6581 47.6565V45.294C38.6581 44.6483 38.1347 44.1255 37.4896 44.1255Z" fill="#2F4858"/>
<path d="M20.5224 26.729H15.9751C14.9016 26.729 14.0276 27.6023 14.0276 28.6765V40.4062C14.0276 41.4804 14.9016 42.3537 15.9751 42.3537H20.5224C21.596 42.3537 22.4699 41.4804 22.4699 40.4062V28.6765C22.4699 27.6023 21.596 26.729 20.5224 26.729ZM20.1329 40.0167H16.3646V29.066H20.1329V40.0167Z" fill="#2F4858"/>
<path d="M65.2361 26.729H60.6888C59.6153 26.729 58.7413 27.6023 58.7413 28.6765V40.4062C58.7413 41.4804 59.6153 42.3537 60.6888 42.3537H65.2361C66.3096 42.3537 67.1836 41.4804 67.1836 40.4062V28.6765C67.1836 27.6023 66.3096 26.729 65.2361 26.729ZM64.8466 40.0167H61.0783V29.066H64.8466V40.0167Z" fill="#2F4858"/>
<path d="M41.115 17.3242H40.0962C37.5682 17.3242 35.5118 19.3812 35.5118 21.9093V26.3507C35.5118 27.2776 36.2658 28.0316 37.1927 28.0316H44.0185C44.9454 28.0316 45.6994 27.2776 45.6994 26.3507V21.9093C45.6994 19.3812 43.643 17.3242 41.115 17.3242ZM37.8481 25.6946V21.9093C37.8481 20.6696 38.8565 19.6612 40.0962 19.6612H41.115C42.354 19.6612 43.3625 20.6696 43.3625 21.9093V25.6946H37.8481Z" fill="#2F4858"/>
<path d="M79.321 55.7959H73.8286V21.3076H78.5421C79.1756 21.3076 79.7178 21.0094 79.9935 20.5098C80.2686 20.0101 80.2309 19.3918 79.8925 18.8563L70.3341 3.73425C69.8941 3.03742 68.9758 2.53169 68.1518 2.53169H43.5457L42.0023 0.670047C41.6493 0.244041 41.1399 0 40.6056 0C40.0707 0 39.5619 0.244041 39.2089 0.670047L37.6655 2.53169H13.0594C12.2348 2.53169 11.3171 3.03742 10.8765 3.73425L1.3187 18.8563C0.980326 19.3924 0.942594 20.0101 1.21767 20.5098C1.49336 21.0094 2.0356 21.3076 2.66914 21.3076H7.38259V46.2338C6.20742 47.3579 5.47347 48.9384 5.47347 50.6893C5.47347 51.01 5.49964 51.3246 5.54711 51.6326H5.05112C3.97758 51.6326 3.10366 52.5065 3.10366 53.58V55.7959H1.89015C1.24506 55.7959 0.72168 56.3192 0.72168 56.9643C0.72168 57.61 1.24506 58.1328 1.89015 58.1328H79.321C79.9661 58.1328 80.4895 57.61 80.4895 56.9643C80.4895 56.3192 79.9661 55.7959 79.321 55.7959ZM74.5248 14.738H53.6651L52.1157 12.8684H73.343L74.5248 14.738ZM70.6841 8.66192L71.8659 10.5315H50.178L48.6279 8.66192H70.6841ZM68.1396 4.86864C68.2035 4.8796 68.3222 4.94532 68.3654 4.9934L69.207 6.32498H46.6902L45.4834 4.86864H68.1396ZM10.5271 8.66192H18.3267C18.9718 8.66192 19.4952 8.13855 19.4952 7.49345C19.4952 6.84775 18.9718 6.32498 18.3267 6.32498H12.0035L12.8458 4.99279C12.889 4.94532 13.0077 4.8796 13.071 4.86864H35.7278L34.5204 6.32498H23.7796C23.1345 6.32498 22.6111 6.84775 22.6111 7.49345C22.6111 8.13855 23.1345 8.66192 23.7796 8.66192H32.5833L31.0332 10.5315H9.34526L10.5271 8.66192ZM7.86824 12.8684H29.0955L27.5455 14.738H6.68638L7.86824 12.8684ZM4.01106 18.9707L5.20935 17.0749H25.6084L24.0364 18.9707H4.01106ZM26.5486 44.4592C25.6637 43.9547 24.6468 43.6669 23.5751 43.6669C21.47 43.6669 19.5183 44.7879 18.4289 46.543C18.1368 46.4858 17.838 46.4572 17.5343 46.4572C17.098 46.4572 16.6756 46.5187 16.2746 46.6319C15.1213 45.3228 13.4367 44.5213 11.6408 44.5213C10.9702 44.5213 10.3245 44.6308 9.71954 44.8299V21.3076H22.0987C21.6745 21.82 21.5704 22.442 21.8193 22.9721C22.0689 23.5028 22.6154 23.8198 23.2811 23.8198H26.5486V44.4592ZM12.9109 51.6326H7.93031C7.85363 51.3307 7.81042 51.0149 7.81042 50.6893C7.81042 48.5769 9.52905 46.8583 11.6408 46.8583C12.6054 46.8583 13.5183 47.2313 14.2115 47.8575C13.3887 48.698 12.8805 49.847 12.8805 51.1128C12.8805 51.2887 12.8915 51.4622 12.9109 51.6326ZM26.5486 55.7959H5.44061V53.9695H26.5486V55.7959ZM26.5492 51.6326H15.2783C15.2394 51.4658 15.2175 51.2918 15.2175 51.1128C15.2175 49.8342 16.2569 48.7941 17.5343 48.7941C17.88 48.7941 18.2129 48.869 18.5239 49.0157C18.8178 49.155 19.1556 49.1648 19.4574 49.0449C19.7593 48.9244 19.9966 48.6834 20.1141 48.3803C20.6624 46.9587 22.0542 46.0038 23.5757 46.0038C24.7764 46.0038 25.8658 46.5929 26.5492 47.507V51.6326ZM24.9894 21.4829L40.6056 2.64672L56.2218 21.4829H54.1611L41.5051 6.21787C41.2829 5.9507 40.9531 5.79551 40.6056 5.79551C40.2575 5.79551 39.9276 5.9507 39.7061 6.21847L27.0501 21.4829H24.9894ZM45.5534 55.7959H35.6578V37.6608H45.5534V55.7959ZM71.4917 55.7959H54.6626V41.6859C54.6626 41.0408 54.1392 40.5175 53.4941 40.5175C52.849 40.5175 52.3256 41.0408 52.3256 41.6859V55.7959H47.8903V37.2713C47.8903 36.1978 47.017 35.3238 45.9428 35.3238H35.2683C34.1942 35.3238 33.3209 36.1978 33.3209 37.2713V55.7959H28.8856V22.9307L40.6056 8.79459L52.3256 22.9307V36.1552C52.3256 36.8009 52.849 37.3236 53.4941 37.3236C54.1392 37.3236 54.6626 36.8009 54.6626 36.1552V23.8198H57.9294C58.5952 23.8198 59.1417 23.5028 59.3913 22.9721C59.6408 22.442 59.5361 21.82 59.1125 21.3076H63.6635C64.3086 21.3076 64.832 20.7848 64.832 20.1391C64.832 19.494 64.3086 18.9707 63.6635 18.9707H57.1748L55.6028 17.0749H76.0018L77.2001 18.9707H69.2722C68.6271 18.9707 68.1037 19.494 68.1037 20.1391C68.1037 20.7848 68.6271 21.3076 69.2722 21.3076H71.4917V55.7959Z" fill="#2F4858"/>
</svg>
