<svg width="76" height="76" viewBox="0 0 76 76" fill="none" xmlns="http://www.w3.org/2000/svg">
<path fill-rule="evenodd" clip-rule="evenodd" d="M36.0228 0.515007C37.2523 -0.171669 38.7477 -0.171669 39.9772 0.515007L73.9058 19.4617C75.1983 20.1834 76 21.5529 76 23.0392V71.9075C76 74.1678 74.1772 76 71.9286 76H4.07143C1.82283 76 0 74.1678 0 71.9075V23.0392C0 21.5529 0.801637 20.1834 2.09417 19.4617L36.0228 0.515007ZM38.659 2.89999C38.2492 2.6711 37.7508 2.6711 37.341 2.89999L3.41235 21.8466C2.98149 22.0873 2.71429 22.5437 2.71429 23.0392V71.9075C2.71429 72.6609 3.32189 73.2717 4.07143 73.2717H10.8571V32.347C10.8571 31.5935 11.4647 30.9828 12.2143 30.9828H63.7857C64.5353 30.9828 65.1429 31.5935 65.1429 32.347V73.2717H71.9286C72.6781 73.2717 73.2857 72.6609 73.2857 71.9075V23.0392C73.2857 22.5437 73.0185 22.0873 72.5876 21.8466L38.659 2.89999ZM62.4286 65.0867V60.9943H13.5714V65.0867H62.4286ZM13.5714 67.8151H62.4286V73.2717H13.5714V67.8151ZM13.5714 58.266H62.4286V54.1735H13.5714V58.266ZM62.4286 51.4452V47.3527H13.5714V51.4452H62.4286ZM13.5714 44.6244H62.4286V40.5319H13.5714V44.6244ZM62.4286 37.8036V33.7111H13.5714V37.8036H62.4286Z" fill="#2F4858"/>
</svg>
