<svg width="40" height="40" viewBox="0 0 49 49" fill="none" xmlns="http://www.w3.org/2000/svg">
<path d="M48.8173 4.67447L35.3914 44.9497C35.1576 45.6577 34.7061 46.2737 34.1014 46.7098C33.4966 47.1459 32.7696 47.3798 32.024 47.3781L31.9686 47.3772C31.2137 47.3678 30.4816 47.1171 29.8795 46.6617C29.2774 46.2064 28.8367 45.5703 28.6221 44.8465L23.5551 27.9564L36.7664 14.7444C36.9312 14.5796 37.062 14.3839 37.1512 14.1685C37.2405 13.9531 37.2864 13.7222 37.2864 13.4891C37.2864 13.2559 37.2405 13.0251 37.1512 12.8097C37.062 12.5943 36.9312 12.3985 36.7664 12.2337C36.6015 12.0688 36.4058 11.9381 36.1904 11.8488C35.975 11.7596 35.7442 11.7137 35.511 11.7137C35.2779 11.7137 35.047 11.7596 34.8316 11.8488C34.6162 11.9381 34.4205 12.0688 34.2556 12.2337L21.0444 25.4456L4.15348 20.3779C3.43068 20.1613 2.79571 19.7199 2.34066 19.118C1.88561 18.5161 1.63414 17.7848 1.62274 17.0303C1.61134 16.2758 1.84059 15.5373 2.27725 14.9219C2.7139 14.3065 3.33525 13.8462 4.05117 13.6077L44.3264 0.182619C44.952 -0.0262006 45.6234 -0.0565976 46.2653 0.0948368C46.9072 0.246271 47.4943 0.573548 47.9606 1.03996C48.4269 1.50638 48.7541 2.09349 48.9054 2.73544C49.0567 3.3774 49.0262 4.04889 48.8173 4.67447ZM11.9085 26.4381C11.7437 26.2732 11.548 26.1424 11.3326 26.0531C11.1172 25.9638 10.8863 25.9179 10.6532 25.9179C10.42 25.9179 10.1891 25.9638 9.97373 26.0531C9.75832 26.1424 9.56262 26.2732 9.39779 26.4381L0.519993 35.3159C0.187047 35.6488 0 36.1004 0 36.5713C0 37.0421 0.187047 37.4937 0.519993 37.8266C0.852939 38.1596 1.30451 38.3466 1.77537 38.3466C2.24622 38.3466 2.6978 38.1596 3.03074 37.8266L11.9085 28.9488C12.0735 28.784 12.2043 28.5883 12.2935 28.3729C12.3828 28.1575 12.4287 27.9266 12.4287 27.6935C12.4287 27.4603 12.3828 27.2294 12.2935 27.014C12.2043 26.7986 12.0735 26.6029 11.9085 26.4381ZM22.5619 37.0915C22.3971 36.9265 22.2014 36.7957 21.986 36.7065C21.7706 36.6172 21.5397 36.5713 21.3065 36.5713C21.0734 36.5713 20.8425 36.6172 20.6271 36.7065C20.4117 36.7957 20.216 36.9265 20.0512 37.0915L11.1734 45.9693C11.0085 46.1341 10.8777 46.3298 10.7885 46.5452C10.6993 46.7606 10.6534 46.9915 10.6534 47.2246C10.6534 47.4578 10.6993 47.6886 10.7885 47.904C10.8777 48.1194 11.0085 48.3152 11.1734 48.48C11.3382 48.6449 11.5339 48.7756 11.7493 48.8649C11.9647 48.9541 12.1956 49 12.4287 49C12.6619 49 12.8927 48.9541 13.1081 48.8649C13.3235 48.7756 13.5192 48.6449 13.6841 48.48L22.5619 39.6022C22.7268 39.4374 22.8576 39.2417 22.9469 39.0263C23.0362 38.8109 23.0821 38.58 23.0821 38.3468C23.0821 38.1137 23.0362 37.8828 22.9469 37.6674C22.8576 37.452 22.7268 37.2563 22.5619 37.0915ZM13.6148 35.2465C13.2795 34.916 12.8266 34.7321 12.3558 34.7354C11.885 34.7386 11.4347 34.9287 11.104 35.2639L2.28689 44.2023C2.12233 44.3681 1.99212 44.5648 1.90371 44.781C1.8153 44.9973 1.77043 45.2288 1.77168 45.4624C1.77294 45.696 1.82028 45.9271 1.911 46.1424C2.00172 46.3577 2.13404 46.5529 2.30036 46.717C2.46669 46.881 2.66375 47.0106 2.88026 47.0984C3.09677 47.1861 3.32847 47.2303 3.56207 47.2283C3.79568 47.2263 4.0266 47.1782 4.24159 47.0869C4.45659 46.9955 4.65144 46.8626 4.81497 46.6957L13.6321 37.7572C13.9626 37.422 14.1465 36.9691 14.1432 36.4983C14.14 36.0275 13.9499 35.5772 13.6148 35.2465Z" fill="#F26100"/>
</svg>
