<svg width="83" height="73" viewBox="0 0 83 73" fill="none" xmlns="http://www.w3.org/2000/svg">
<path d="M58.6836 72.4124C58.3715 72.4124 58.0721 72.2884 57.8513 72.0676C57.6306 71.8469 57.5066 71.5475 57.5066 71.2353V8.70748L42.5885 2.44905L30.061 7.3774V71.2353C30.061 71.5475 29.937 71.8469 29.7163 72.0676C29.4955 72.2884 29.1961 72.4124 28.884 72.4124C28.5718 72.4124 28.2724 72.2884 28.0517 72.0676C27.8309 71.8469 27.7069 71.5475 27.7069 71.2353V6.57465C27.7068 6.33816 27.778 6.10713 27.9111 5.91166C28.0442 5.7162 28.2331 5.56536 28.4532 5.4788L42.1718 0.0819755C42.4572 -0.0304954 42.7752 -0.0271166 43.0581 0.0913922L59.1392 6.83949C59.3529 6.92921 59.5355 7.08007 59.6638 7.27314C59.7922 7.46621 59.8607 7.69289 59.8607 7.92474V71.2353C59.8607 71.5475 59.7367 71.8469 59.5159 72.0676C59.2952 72.2884 58.9958 72.4124 58.6836 72.4124Z" fill="#2F4858"/>
<path d="M42.6026 72.4126C42.2904 72.4126 41.991 72.2886 41.7703 72.0679C41.5495 71.8471 41.4255 71.5477 41.4255 71.2355V1.17804C41.4255 0.865862 41.5495 0.566472 41.7703 0.34573C41.991 0.124988 42.2904 0.000976563 42.6026 0.000976562C42.9148 0.000976563 43.2142 0.124988 43.4349 0.34573C43.6556 0.566472 43.7797 0.865862 43.7797 1.17804V71.2355C43.7797 71.5477 43.6556 71.8471 43.4349 72.0679C43.2142 72.2886 42.9148 72.4126 42.6026 72.4126Z" fill="#2F4858"/>
<path d="M77.6872 72.4125C77.375 72.4125 77.0756 72.2885 76.8549 72.0677C76.6341 71.847 76.5101 71.5476 76.5101 71.2354V34.2404L65.0008 27.5441H58.6835C58.3714 27.5441 58.072 27.4201 57.8512 27.1993C57.6305 26.9786 57.5065 26.6792 57.5065 26.367C57.5065 26.0548 57.6305 25.7554 57.8512 25.5347C58.072 25.314 58.3714 25.1899 58.6835 25.1899H65.3186C65.5255 25.1907 65.7284 25.2459 65.9072 25.35L78.2769 32.5466C78.4555 32.6497 78.6038 32.7979 78.7071 32.9764C78.8104 33.1549 78.865 33.3573 78.8654 33.5636V71.2295C78.8662 71.3847 78.8363 71.5385 78.7774 71.682C78.7185 71.8256 78.6318 71.9561 78.5223 72.0661C78.4128 72.176 78.2827 72.2632 78.1394 72.3227C77.996 72.3821 77.8424 72.4126 77.6872 72.4125Z" fill="#2F4858"/>
<path d="M65.3187 72.4125C65.0065 72.4125 64.7071 72.2885 64.4864 72.0677C64.2656 71.847 64.1416 71.5476 64.1416 71.2354V26.367C64.1416 26.0548 64.2656 25.7554 64.4864 25.5347C64.7071 25.314 65.0065 25.1899 65.3187 25.1899C65.6308 25.1899 65.9302 25.314 66.151 25.5347C66.3717 25.7554 66.4957 26.0548 66.4957 26.367V71.2354C66.4957 71.5476 66.3717 71.847 66.151 72.0677C65.9302 72.2885 65.6308 72.4125 65.3187 72.4125Z" fill="#2F4858"/>
<path d="M4.70599 72.4126C4.39382 72.4126 4.09443 72.2886 3.87368 72.0679C3.65294 71.8471 3.52893 71.5477 3.52893 71.2356V34.576C3.52893 34.2638 3.65294 33.9644 3.87368 33.7437C4.09443 33.5229 4.39382 33.3989 4.70599 33.3989H28.884C29.1962 33.3989 29.4956 33.5229 29.7163 33.7437C29.9371 33.9644 30.0611 34.2638 30.0611 34.576C30.0611 34.8882 29.9371 35.1876 29.7163 35.4083C29.4956 35.629 29.1962 35.753 28.884 35.753H5.88305V71.2356C5.88305 71.5477 5.75904 71.8471 5.5383 72.0679C5.31756 72.2886 5.01817 72.4126 4.70599 72.4126Z" fill="#2F4858"/>
<path d="M11.1856 40.274H8.68439C8.37221 40.274 8.07282 40.15 7.85208 39.9293C7.63134 39.7086 7.50732 39.4092 7.50732 39.097C7.50732 38.7848 7.63134 38.4854 7.85208 38.2647C8.07282 38.0439 8.37221 37.9199 8.68439 37.9199H11.1856C11.4978 37.9199 11.7972 38.0439 12.0179 38.2647C12.2387 38.4854 12.3627 38.7848 12.3627 39.097C12.3627 39.4092 12.2387 39.7086 12.0179 39.9293C11.7972 40.15 11.4978 40.274 11.1856 40.274Z" fill="#2F4858"/>
<path d="M18.0467 40.274H15.5442C15.2321 40.274 14.9327 40.15 14.7119 39.9293C14.4912 39.7086 14.3672 39.4092 14.3672 39.097C14.3672 38.7848 14.4912 38.4854 14.7119 38.2647C14.9327 38.0439 15.2321 37.9199 15.5442 37.9199H18.0467C18.3589 37.9199 18.6582 38.0439 18.879 38.2647C19.0997 38.4854 19.2237 38.7848 19.2237 39.097C19.2237 39.4092 19.0997 39.7086 18.879 39.9293C18.6582 40.15 18.3589 40.274 18.0467 40.274Z" fill="#2F4858"/>
<path d="M24.9055 40.274H22.4042C22.0921 40.274 21.7927 40.15 21.5719 39.9293C21.3512 39.7086 21.2272 39.4092 21.2272 39.097C21.2272 38.7848 21.3512 38.4854 21.5719 38.2647C21.7927 38.0439 22.0921 37.9199 22.4042 37.9199H24.9055C25.2177 37.9199 25.5171 38.0439 25.7378 38.2647C25.9585 38.4854 26.0826 38.7848 26.0826 39.097C26.0826 39.4092 25.9585 39.7086 25.7378 39.9293C25.5171 40.15 25.2177 40.274 24.9055 40.274Z" fill="#2F4858"/>
<path d="M11.1856 45.798H8.68439C8.37221 45.798 8.07282 45.674 7.85208 45.4532C7.63134 45.2325 7.50732 44.9331 7.50732 44.6209C7.50732 44.3087 7.63134 44.0093 7.85208 43.7886C8.07282 43.5679 8.37221 43.4438 8.68439 43.4438H11.1856C11.4978 43.4438 11.7972 43.5679 12.0179 43.7886C12.2387 44.0093 12.3627 44.3087 12.3627 44.6209C12.3627 44.9331 12.2387 45.2325 12.0179 45.4532C11.7972 45.674 11.4978 45.798 11.1856 45.798Z" fill="#2F4858"/>
<path d="M18.0467 45.798H15.5442C15.2321 45.798 14.9327 45.674 14.7119 45.4532C14.4912 45.2325 14.3672 44.9331 14.3672 44.6209C14.3672 44.3087 14.4912 44.0093 14.7119 43.7886C14.9327 43.5679 15.2321 43.4438 15.5442 43.4438H18.0467C18.3589 43.4438 18.6582 43.5679 18.879 43.7886C19.0997 44.0093 19.2237 44.3087 19.2237 44.6209C19.2237 44.9331 19.0997 45.2325 18.879 45.4532C18.6582 45.674 18.3589 45.798 18.0467 45.798Z" fill="#2F4858"/>
<path d="M24.9055 45.798H22.4042C22.0921 45.798 21.7927 45.674 21.5719 45.4532C21.3512 45.2325 21.2272 44.9331 21.2272 44.6209C21.2272 44.3087 21.3512 44.0093 21.5719 43.7886C21.7927 43.5679 22.0921 43.4438 22.4042 43.4438H24.9055C25.2177 43.4438 25.5171 43.5679 25.7378 43.7886C25.9585 44.0093 26.0826 44.3087 26.0826 44.6209C26.0826 44.9331 25.9585 45.2325 25.7378 45.4532C25.5171 45.674 25.2177 45.798 24.9055 45.798Z" fill="#2F4858"/>
<path d="M11.1856 51.3209H8.68439C8.37221 51.3209 8.07282 51.1969 7.85208 50.9762C7.63134 50.7554 7.50732 50.456 7.50732 50.1439C7.50732 49.8317 7.63134 49.5323 7.85208 49.3116C8.07282 49.0908 8.37221 48.9668 8.68439 48.9668H11.1856C11.4978 48.9668 11.7972 49.0908 12.0179 49.3116C12.2387 49.5323 12.3627 49.8317 12.3627 50.1439C12.3627 50.456 12.2387 50.7554 12.0179 50.9762C11.7972 51.1969 11.4978 51.3209 11.1856 51.3209Z" fill="#2F4858"/>
<path d="M18.0467 51.3209H15.5442C15.2321 51.3209 14.9327 51.1969 14.7119 50.9762C14.4912 50.7554 14.3672 50.456 14.3672 50.1439C14.3672 49.8317 14.4912 49.5323 14.7119 49.3116C14.9327 49.0908 15.2321 48.9668 15.5442 48.9668H18.0467C18.3589 48.9668 18.6582 49.0908 18.879 49.3116C19.0997 49.5323 19.2237 49.8317 19.2237 50.1439C19.2237 50.456 19.0997 50.7554 18.879 50.9762C18.6582 51.1969 18.3589 51.3209 18.0467 51.3209Z" fill="#2F4858"/>
<path d="M24.9055 51.3209H22.4042C22.0921 51.3209 21.7927 51.1969 21.5719 50.9762C21.3512 50.7554 21.2272 50.456 21.2272 50.1439C21.2272 49.8317 21.3512 49.5323 21.5719 49.3116C21.7927 49.0908 22.0921 48.9668 22.4042 48.9668H24.9055C25.2177 48.9668 25.5171 49.0908 25.7378 49.3116C25.9585 49.5323 26.0826 49.8317 26.0826 50.1439C26.0826 50.456 25.9585 50.7554 25.7378 50.9762C25.5171 51.1969 25.2177 51.3209 24.9055 51.3209Z" fill="#2F4858"/>
<path d="M11.1856 56.8444H8.68439C8.37221 56.8444 8.07282 56.7203 7.85208 56.4996C7.63134 56.2789 7.50732 55.9795 7.50732 55.6673C7.50732 55.3551 7.63134 55.0557 7.85208 54.835C8.07282 54.6142 8.37221 54.4902 8.68439 54.4902H11.1856C11.4978 54.4902 11.7972 54.6142 12.0179 54.835C12.2387 55.0557 12.3627 55.3551 12.3627 55.6673C12.3627 55.9795 12.2387 56.2789 12.0179 56.4996C11.7972 56.7203 11.4978 56.8444 11.1856 56.8444Z" fill="#2F4858"/>
<path d="M18.0467 56.8444H15.5442C15.2321 56.8444 14.9327 56.7203 14.7119 56.4996C14.4912 56.2789 14.3672 55.9795 14.3672 55.6673C14.3672 55.3551 14.4912 55.0557 14.7119 54.835C14.9327 54.6142 15.2321 54.4902 15.5442 54.4902H18.0467C18.3589 54.4902 18.6582 54.6142 18.879 54.835C19.0997 55.0557 19.2237 55.3551 19.2237 55.6673C19.2237 55.9795 19.0997 56.2789 18.879 56.4996C18.6582 56.7203 18.3589 56.8444 18.0467 56.8444Z" fill="#2F4858"/>
<path d="M24.9055 56.8444H22.4042C22.0921 56.8444 21.7927 56.7203 21.5719 56.4996C21.3512 56.2789 21.2272 55.9795 21.2272 55.6673C21.2272 55.3551 21.3512 55.0557 21.5719 54.835C21.7927 54.6142 22.0921 54.4902 22.4042 54.4902H24.9055C25.2177 54.4902 25.5171 54.6142 25.7378 54.835C25.9585 55.0557 26.0826 55.3551 26.0826 55.6673C26.0826 55.9795 25.9585 56.2789 25.7378 56.4996C25.5171 56.7203 25.2177 56.8444 24.9055 56.8444Z" fill="#2F4858"/>
<path d="M11.1856 62.3683H8.68439C8.37221 62.3683 8.07282 62.2443 7.85208 62.0235C7.63134 61.8028 7.50732 61.5034 7.50732 61.1912C7.50732 60.879 7.63134 60.5797 7.85208 60.3589C8.07282 60.1382 8.37221 60.0142 8.68439 60.0142H11.1856C11.4978 60.0142 11.7972 60.1382 12.0179 60.3589C12.2387 60.5797 12.3627 60.879 12.3627 61.1912C12.3627 61.5034 12.2387 61.8028 12.0179 62.0235C11.7972 62.2443 11.4978 62.3683 11.1856 62.3683Z" fill="#2F4858"/>
<path d="M18.0467 62.3683H15.5442C15.2321 62.3683 14.9327 62.2443 14.7119 62.0235C14.4912 61.8028 14.3672 61.5034 14.3672 61.1912C14.3672 60.879 14.4912 60.5797 14.7119 60.3589C14.9327 60.1382 15.2321 60.0142 15.5442 60.0142H18.0467C18.3589 60.0142 18.6582 60.1382 18.879 60.3589C19.0997 60.5797 19.2237 60.879 19.2237 61.1912C19.2237 61.5034 19.0997 61.8028 18.879 62.0235C18.6582 62.2443 18.3589 62.3683 18.0467 62.3683Z" fill="#2F4858"/>
<path d="M24.9055 62.3683H22.4042C22.0921 62.3683 21.7927 62.2443 21.5719 62.0235C21.3512 61.8028 21.2272 61.5034 21.2272 61.1912C21.2272 60.879 21.3512 60.5797 21.5719 60.3589C21.7927 60.1382 22.0921 60.0142 22.4042 60.0142H24.9055C25.2177 60.0142 25.5171 60.1382 25.7378 60.3589C25.9585 60.5797 26.0826 60.879 26.0826 61.1912C26.0826 61.5034 25.9585 61.8028 25.7378 62.0235C25.5171 62.2443 25.2177 62.3683 24.9055 62.3683Z" fill="#2F4858"/>
<path d="M11.1856 67.8927H8.68439C8.37221 67.8927 8.07282 67.7687 7.85208 67.5479C7.63134 67.3272 7.50732 67.0278 7.50732 66.7156C7.50732 66.4035 7.63134 66.1041 7.85208 65.8833C8.07282 65.6626 8.37221 65.5386 8.68439 65.5386H11.1856C11.4978 65.5386 11.7972 65.6626 12.0179 65.8833C12.2387 66.1041 12.3627 66.4035 12.3627 66.7156C12.3627 67.0278 12.2387 67.3272 12.0179 67.5479C11.7972 67.7687 11.4978 67.8927 11.1856 67.8927Z" fill="#2F4858"/>
<path d="M18.0467 67.8927H15.5442C15.2321 67.8927 14.9327 67.7687 14.7119 67.5479C14.4912 67.3272 14.3672 67.0278 14.3672 66.7156C14.3672 66.4035 14.4912 66.1041 14.7119 65.8833C14.9327 65.6626 15.2321 65.5386 15.5442 65.5386H18.0467C18.3589 65.5386 18.6582 65.6626 18.879 65.8833C19.0997 66.1041 19.2237 66.4035 19.2237 66.7156C19.2237 67.0278 19.0997 67.3272 18.879 67.5479C18.6582 67.7687 18.3589 67.8927 18.0467 67.8927Z" fill="#2F4858"/>
<path d="M24.9055 67.8927H22.4042C22.0921 67.8927 21.7927 67.7687 21.5719 67.5479C21.3512 67.3272 21.2272 67.0278 21.2272 66.7156C21.2272 66.4035 21.3512 66.1041 21.5719 65.8833C21.7927 65.6626 22.0921 65.5386 22.4042 65.5386H24.9055C25.2177 65.5386 25.5171 65.6626 25.7378 65.8833C25.9585 66.1041 26.0826 66.4035 26.0826 66.7156C26.0826 67.0278 25.9585 67.3272 25.7378 67.5479C25.5171 67.7687 25.2177 67.8927 24.9055 67.8927Z" fill="#2F4858"/>
<path d="M38.4534 12.7002C38.1413 12.7002 37.8419 12.5762 37.6211 12.3555C37.4004 12.1347 37.2764 11.8354 37.2764 11.5232V9.30206C37.2764 8.98989 37.4004 8.6905 37.6211 8.46975C37.8419 8.24901 38.1413 8.125 38.4534 8.125C38.7656 8.125 39.065 8.24901 39.2857 8.46975C39.5065 8.6905 39.6305 8.98989 39.6305 9.30206V11.5232C39.6305 11.8354 39.5065 12.1347 39.2857 12.3555C39.065 12.5762 38.7656 12.7002 38.4534 12.7002Z" fill="#2F4858"/>
<path d="M33.086 14.0689C32.7738 14.0689 32.4744 13.9449 32.2537 13.7241C32.0329 13.5034 31.9089 13.204 31.9089 12.8918V10.6707C31.9089 10.3585 32.0329 10.0591 32.2537 9.83841C32.4744 9.61766 32.7738 9.49365 33.086 9.49365C33.3982 9.49365 33.6976 9.61766 33.9183 9.83841C34.139 10.0591 34.2631 10.3585 34.2631 10.6707V12.8918C34.2631 13.204 34.139 13.5034 33.9183 13.7241C33.6976 13.9449 33.3982 14.0689 33.086 14.0689Z" fill="#2F4858"/>
<path d="M38.4534 21.5538C38.1413 21.5538 37.8419 21.4297 37.6211 21.209C37.4004 20.9883 37.2764 20.6889 37.2764 20.3767V18.1556C37.2764 17.8434 37.4004 17.544 37.6211 17.3233C37.8419 17.1025 38.1413 16.9785 38.4534 16.9785C38.7656 16.9785 39.065 17.1025 39.2857 17.3233C39.5065 17.544 39.6305 17.8434 39.6305 18.1556V20.3767C39.6305 20.6889 39.5065 20.9883 39.2857 21.209C39.065 21.4297 38.7656 21.5538 38.4534 21.5538Z" fill="#2F4858"/>
<path d="M33.086 22.9229C32.7738 22.9229 32.4744 22.7989 32.2537 22.5781C32.0329 22.3574 31.9089 22.058 31.9089 21.7458V19.5247C31.9089 19.2125 32.0329 18.9132 32.2537 18.6924C32.4744 18.4717 32.7738 18.3477 33.086 18.3477C33.3982 18.3477 33.6976 18.4717 33.9183 18.6924C34.139 18.9132 34.2631 19.2125 34.2631 19.5247V21.7458C34.2631 22.058 34.139 22.3574 33.9183 22.5781C33.6976 22.7989 33.3982 22.9229 33.086 22.9229Z" fill="#2F4858"/>
<path d="M38.4534 30.4125C38.1413 30.4125 37.8419 30.2885 37.6211 30.0677C37.4004 29.847 37.2764 29.5476 37.2764 29.2354V27.0096C37.2764 26.6974 37.4004 26.398 37.6211 26.1773C37.8419 25.9565 38.1413 25.8325 38.4534 25.8325C38.7656 25.8325 39.065 25.9565 39.2857 26.1773C39.5065 26.398 39.6305 26.6974 39.6305 27.0096V29.2354C39.6305 29.5476 39.5065 29.847 39.2857 30.0677C39.065 30.2885 38.7656 30.4125 38.4534 30.4125Z" fill="#2F4858"/>
<path d="M33.086 31.7769C32.7738 31.7769 32.4744 31.6529 32.2537 31.4321C32.0329 31.2114 31.9089 30.912 31.9089 30.5998V28.3787C31.9089 28.0665 32.0329 27.7672 32.2537 27.5464C32.4744 27.3257 32.7738 27.2017 33.086 27.2017C33.3982 27.2017 33.6976 27.3257 33.9183 27.5464C34.139 27.7672 34.2631 28.0665 34.2631 28.3787V30.5998C34.2631 30.912 34.139 31.2114 33.9183 31.4321C33.6976 31.6529 33.3982 31.7769 33.086 31.7769Z" fill="#2F4858"/>
<path d="M38.4534 39.2603C38.1413 39.2603 37.8419 39.1363 37.6211 38.9155C37.4004 38.6948 37.2764 38.3954 37.2764 38.0832V35.8621C37.2764 35.5499 37.4004 35.2506 37.6211 35.0298C37.8419 34.8091 38.1413 34.6851 38.4534 34.6851C38.7656 34.6851 39.065 34.8091 39.2857 35.0298C39.5065 35.2506 39.6305 35.5499 39.6305 35.8621V38.0832C39.6305 38.3954 39.5065 38.6948 39.2857 38.9155C39.065 39.1363 38.7656 39.2603 38.4534 39.2603Z" fill="#2F4858"/>
<path d="M33.086 40.6294C32.7738 40.6294 32.4744 40.5054 32.2537 40.2847C32.0329 40.0639 31.9089 39.7646 31.9089 39.4524V37.2313C31.9089 36.9191 32.0329 36.6197 32.2537 36.399C32.4744 36.1782 32.7738 36.0542 33.086 36.0542C33.3982 36.0542 33.6976 36.1782 33.9183 36.399C34.139 36.6197 34.2631 36.9191 34.2631 37.2313V39.4524C34.2631 39.7646 34.139 40.0639 33.9183 40.2847C33.6976 40.5054 33.3982 40.6294 33.086 40.6294Z" fill="#2F4858"/>
<path d="M38.4534 48.1143C38.1413 48.1143 37.8419 47.9903 37.6211 47.7695C37.4004 47.5488 37.2764 47.2494 37.2764 46.9372V44.7161C37.2764 44.4039 37.4004 44.1046 37.6211 43.8838C37.8419 43.6631 38.1413 43.5391 38.4534 43.5391C38.7656 43.5391 39.065 43.6631 39.2857 43.8838C39.5065 44.1046 39.6305 44.4039 39.6305 44.7161V46.9372C39.6305 47.2494 39.5065 47.5488 39.2857 47.7695C39.065 47.9903 38.7656 48.1143 38.4534 48.1143Z" fill="#2F4858"/>
<path d="M33.086 49.4811C32.7738 49.4811 32.4744 49.3571 32.2537 49.1363C32.0329 48.9156 31.9089 48.6162 31.9089 48.304V46.0853C31.9089 45.7731 32.0329 45.4737 32.2537 45.253C32.4744 45.0322 32.7738 44.9082 33.086 44.9082C33.3982 44.9082 33.6976 45.0322 33.9183 45.253C34.139 45.4737 34.2631 45.7731 34.2631 46.0853V48.304C34.2631 48.6162 34.139 48.9156 33.9183 49.1363C33.6976 49.3571 33.3982 49.4811 33.086 49.4811Z" fill="#2F4858"/>
<path d="M38.4534 56.9683C38.1413 56.9683 37.8419 56.8443 37.6211 56.6235C37.4004 56.4028 37.2764 56.1034 37.2764 55.7912V53.5701C37.2764 53.258 37.4004 52.9586 37.6211 52.7378C37.8419 52.5171 38.1413 52.3931 38.4534 52.3931C38.7656 52.3931 39.065 52.5171 39.2857 52.7378C39.5065 52.9586 39.6305 53.258 39.6305 53.5701V55.7912C39.6305 56.1034 39.5065 56.4028 39.2857 56.6235C39.065 56.8443 38.7656 56.9683 38.4534 56.9683Z" fill="#2F4858"/>
<path d="M33.086 58.337C32.7738 58.337 32.4744 58.2129 32.2537 57.9922C32.0329 57.7715 31.9089 57.4721 31.9089 57.1599V54.9388C31.9089 54.6266 32.0329 54.3272 32.2537 54.1065C32.4744 53.8857 32.7738 53.7617 33.086 53.7617C33.3982 53.7617 33.6976 53.8857 33.9183 54.1065C34.139 54.3272 34.2631 54.6266 34.2631 54.9388V57.1599C34.2631 57.4721 34.139 57.7715 33.9183 57.9922C33.6976 58.2129 33.3982 58.337 33.086 58.337Z" fill="#2F4858"/>
<path d="M38.4534 65.8208C38.1413 65.8208 37.8419 65.6968 37.6211 65.4761C37.4004 65.2553 37.2764 64.9559 37.2764 64.6438V62.4285C37.2764 62.1164 37.4004 61.817 37.6211 61.5962C37.8419 61.3755 38.1413 61.2515 38.4534 61.2515C38.7656 61.2515 39.065 61.3755 39.2857 61.5962C39.5065 61.817 39.6305 62.1164 39.6305 62.4285V64.6496C39.6289 64.9608 39.5042 65.2587 39.2837 65.4781C39.0631 65.6976 38.7646 65.8208 38.4534 65.8208Z" fill="#2F4858"/>
<path d="M33.086 67.1912C32.7738 67.1912 32.4744 67.0672 32.2537 66.8464C32.0329 66.6257 31.9089 66.3263 31.9089 66.0141V63.7918C31.9089 63.4796 32.0329 63.1802 32.2537 62.9595C32.4744 62.7388 32.7738 62.6147 33.086 62.6147C33.3982 62.6147 33.6976 62.7388 33.9183 62.9595C34.139 63.1802 34.2631 63.4796 34.2631 63.7918V66.0129C34.2632 66.1676 34.2329 66.3208 34.1738 66.4637C34.1147 66.6067 34.028 66.7366 33.9187 66.846C33.8094 66.9554 33.6796 67.0422 33.5367 67.1014C33.3938 67.1607 33.2407 67.1912 33.086 67.1912Z" fill="#2F4858"/>
<path d="M46.5751 11.5797C46.263 11.5797 45.9636 11.4557 45.7428 11.235C45.5221 11.0142 45.3981 10.7148 45.3981 10.4027V8.1839C45.3981 7.87172 45.5221 7.57233 45.7428 7.35159C45.9636 7.13085 46.263 7.00684 46.5751 7.00684C46.8873 7.00684 47.1867 7.13085 47.4074 7.35159C47.6282 7.57233 47.7522 7.87172 47.7522 8.1839V10.4027C47.7522 10.7148 47.6282 11.0142 47.4074 11.235C47.1867 11.4557 46.8873 11.5797 46.5751 11.5797Z" fill="#2F4858"/>
<path d="M50.5501 13.0804C50.2379 13.0804 49.9385 12.9564 49.7178 12.7357C49.4971 12.5149 49.373 12.2155 49.373 11.9033V9.68341C49.373 9.37123 49.4971 9.07184 49.7178 8.8511C49.9385 8.63036 50.2379 8.50635 50.5501 8.50635C50.8623 8.50635 51.1617 8.63036 51.3824 8.8511C51.6032 9.07184 51.7272 9.37123 51.7272 9.68341V11.9045C51.7269 12.2165 51.6027 12.5156 51.382 12.7361C51.1613 12.9566 50.8621 13.0804 50.5501 13.0804Z" fill="#2F4858"/>
<path d="M54.5226 14.5799C54.2105 14.5799 53.9111 14.4559 53.6903 14.2352C53.4696 14.0144 53.3456 13.715 53.3456 13.4029V11.1829C53.3456 10.8707 53.4696 10.5714 53.6903 10.3506C53.9111 10.1299 54.2105 10.0059 54.5226 10.0059C54.8348 10.0059 55.1342 10.1299 55.355 10.3506C55.5757 10.5714 55.6997 10.8707 55.6997 11.1829V13.404C55.6994 13.716 55.5752 14.0151 55.3545 14.2356C55.1338 14.4561 54.8346 14.5799 54.5226 14.5799Z" fill="#2F4858"/>
<path d="M46.5751 20.4074C46.263 20.4074 45.9636 20.2834 45.7428 20.0626C45.5221 19.8419 45.3981 19.5425 45.3981 19.2303V17.0057C45.3981 16.6935 45.5221 16.3941 45.7428 16.1734C45.9636 15.9526 46.263 15.8286 46.5751 15.8286C46.8873 15.8286 47.1867 15.9526 47.4074 16.1734C47.6282 16.3941 47.7522 16.6935 47.7522 17.0057V19.2303C47.7522 19.5425 47.6282 19.8419 47.4074 20.0626C47.1867 20.2834 46.8873 20.4074 46.5751 20.4074Z" fill="#2F4858"/>
<path d="M50.5501 21.9022C50.2379 21.9022 49.9385 21.7782 49.7178 21.5574C49.4971 21.3367 49.373 21.0373 49.373 20.7251V18.5052C49.373 18.193 49.4971 17.8936 49.7178 17.6729C49.9385 17.4521 50.2379 17.3281 50.5501 17.3281C50.8623 17.3281 51.1617 17.4521 51.3824 17.6729C51.6032 17.8936 51.7272 18.193 51.7272 18.5052V20.7251C51.7272 21.0373 51.6032 21.3367 51.3824 21.5574C51.1617 21.7782 50.8623 21.9022 50.5501 21.9022Z" fill="#2F4858"/>
<path d="M54.5226 23.4022C54.2105 23.4022 53.9111 23.2782 53.6903 23.0574C53.4696 22.8367 53.3456 22.5373 53.3456 22.2251V20.0052C53.3456 19.693 53.4696 19.3936 53.6903 19.1729C53.9111 18.9521 54.2105 18.8281 54.5226 18.8281C54.8348 18.8281 55.1342 18.9521 55.355 19.1729C55.5757 19.3936 55.6997 19.693 55.6997 20.0052V22.2263C55.6994 22.5383 55.5752 22.8374 55.3545 23.0578C55.1338 23.2783 54.8346 23.4022 54.5226 23.4022Z" fill="#2F4858"/>
<path d="M46.5751 29.2261C46.263 29.2261 45.9636 29.1021 45.7428 28.8814C45.5221 28.6606 45.3981 28.3613 45.3981 28.0491V25.8221C45.3981 25.5099 45.5221 25.2105 45.7428 24.9898C45.9636 24.769 46.263 24.645 46.5751 24.645C46.8873 24.645 47.1867 24.769 47.4074 24.9898C47.6282 25.2105 47.7522 25.5099 47.7522 25.8221V28.0432C47.753 28.1983 47.7231 28.352 47.6643 28.4954C47.6055 28.6389 47.5189 28.7694 47.4095 28.8793C47.3002 28.9892 47.1701 29.0765 47.0269 29.136C46.8837 29.1955 46.7302 29.2261 46.5751 29.2261Z" fill="#2F4858"/>
<path d="M50.5501 30.7256C50.2379 30.7256 49.9385 30.6016 49.7178 30.3809C49.4971 30.1601 49.373 29.8607 49.373 29.5486V27.3275C49.373 27.0153 49.4971 26.7159 49.7178 26.4951C49.9385 26.2744 50.2379 26.1504 50.5501 26.1504C50.8623 26.1504 51.1617 26.2744 51.3824 26.4951C51.6032 26.7159 51.7272 27.0153 51.7272 27.3275V29.5486C51.7272 29.8607 51.6032 30.1601 51.3824 30.3809C51.1617 30.6016 50.8623 30.7256 50.5501 30.7256Z" fill="#2F4858"/>
<path d="M54.5226 32.224C54.2105 32.224 53.9111 32.1 53.6903 31.8792C53.4696 31.6585 53.3456 31.3591 53.3456 31.0469V28.827C53.3456 28.5148 53.4696 28.2154 53.6903 27.9947C53.9111 27.7739 54.2105 27.6499 54.5226 27.6499C54.8348 27.6499 55.1342 27.7739 55.355 27.9947C55.5757 28.2154 55.6997 28.5148 55.6997 28.827V31.0481C55.6994 31.3601 55.5752 31.6591 55.3545 31.8796C55.1338 32.1001 54.8346 32.224 54.5226 32.224Z" fill="#2F4858"/>
<path d="M46.5751 38.0479C46.263 38.0479 45.9636 37.9239 45.7428 37.7031C45.5221 37.4824 45.3981 37.183 45.3981 36.8708V34.6497C45.3981 34.3375 45.5221 34.0382 45.7428 33.8174C45.9636 33.5967 46.263 33.4727 46.5751 33.4727C46.8873 33.4727 47.1867 33.5967 47.4074 33.8174C47.6282 34.0382 47.7522 34.3375 47.7522 34.6497V36.8708C47.7522 37.183 47.6282 37.4824 47.4074 37.7031C47.1867 37.9239 46.8873 38.0479 46.5751 38.0479Z" fill="#2F4858"/>
<path d="M50.5501 39.5474C50.2379 39.5474 49.9385 39.4234 49.7178 39.2027C49.4971 38.9819 49.373 38.6825 49.373 38.3703V36.1492C49.373 35.8371 49.4971 35.5377 49.7178 35.3169C49.9385 35.0962 50.2379 34.9722 50.5501 34.9722C50.8623 34.9722 51.1617 35.0962 51.3824 35.3169C51.6032 35.5377 51.7272 35.8371 51.7272 36.1492V38.3703C51.7272 38.6825 51.6032 38.9819 51.3824 39.2027C51.1617 39.4234 50.8623 39.5474 50.5501 39.5474Z" fill="#2F4858"/>
<path d="M54.5226 41.0474C54.2105 41.0474 53.9111 40.9234 53.6903 40.7026C53.4696 40.4819 53.3456 40.1825 53.3456 39.8703V37.6492C53.3456 37.3371 53.4696 37.0377 53.6903 36.8169C53.9111 36.5962 54.2105 36.4722 54.5226 36.4722C54.8348 36.4722 55.1342 36.5962 55.355 36.8169C55.5757 37.0377 55.6997 37.3371 55.6997 37.6492V39.8703C55.6997 40.1825 55.5757 40.4819 55.355 40.7026C55.1342 40.9234 54.8348 41.0474 54.5226 41.0474Z" fill="#2F4858"/>
<path d="M46.5751 46.8701C46.263 46.8701 45.9636 46.7461 45.7428 46.5254C45.5221 46.3046 45.3981 46.0052 45.3981 45.6931V43.4778C45.3981 43.1657 45.5221 42.8663 45.7428 42.6455C45.9636 42.4248 46.263 42.3008 46.5751 42.3008C46.8873 42.3008 47.1867 42.4248 47.4074 42.6455C47.6282 42.8663 47.7522 43.1657 47.7522 43.4778V45.699C47.7506 46.0101 47.6259 46.308 47.4054 46.5275C47.1848 46.7469 46.8863 46.8701 46.5751 46.8701Z" fill="#2F4858"/>
<path d="M50.5501 48.3697C50.2379 48.3697 49.9385 48.2457 49.7178 48.0249C49.4971 47.8042 49.373 47.5048 49.373 47.1926V44.9715C49.373 44.6593 49.4971 44.3599 49.7178 44.1392C49.9385 43.9184 50.2379 43.7944 50.5501 43.7944C50.8623 43.7944 51.1617 43.9184 51.3824 44.1392C51.6032 44.3599 51.7272 44.6593 51.7272 44.9715V47.1926C51.7272 47.5048 51.6032 47.8042 51.3824 48.0249C51.1617 48.2457 50.8623 48.3697 50.5501 48.3697Z" fill="#2F4858"/>
<path d="M54.5226 49.8692C54.2105 49.8692 53.9111 49.7452 53.6903 49.5244C53.4696 49.3037 53.3456 49.0043 53.3456 48.6921V46.471C53.3456 46.1588 53.4696 45.8594 53.6903 45.6387C53.9111 45.418 54.2105 45.2939 54.5226 45.2939C54.8348 45.2939 55.1342 45.418 55.355 45.6387C55.5757 45.8594 55.6997 46.1588 55.6997 46.471V48.6921C55.6997 49.0043 55.5757 49.3037 55.355 49.5244C55.1342 49.7452 54.8348 49.8692 54.5226 49.8692Z" fill="#2F4858"/>
<path d="M46.5751 55.6924C46.263 55.6924 45.9636 55.5684 45.7428 55.3477C45.5221 55.1269 45.3981 54.8275 45.3981 54.5154V52.2942C45.3981 51.9821 45.5221 51.6827 45.7428 51.4619C45.9636 51.2412 46.263 51.1172 46.5751 51.1172C46.8873 51.1172 47.1867 51.2412 47.4074 51.4619C47.6282 51.6827 47.7522 51.9821 47.7522 52.2942V54.5154C47.7522 54.8275 47.6282 55.1269 47.4074 55.3477C47.1867 55.5684 46.8873 55.6924 46.5751 55.6924Z" fill="#2F4858"/>
<path d="M50.5501 57.1919C50.2379 57.1919 49.9385 57.0679 49.7178 56.8472C49.4971 56.6264 49.373 56.3271 49.373 56.0149V53.7938C49.373 53.4816 49.4971 53.1822 49.7178 52.9615C49.9385 52.7407 50.2379 52.6167 50.5501 52.6167C50.8623 52.6167 51.1617 52.7407 51.3824 52.9615C51.6032 53.1822 51.7272 53.4816 51.7272 53.7938V56.0149C51.7272 56.3271 51.6032 56.6264 51.3824 56.8472C51.1617 57.0679 50.8623 57.1919 50.5501 57.1919Z" fill="#2F4858"/>
<path d="M54.5226 58.6914C54.2105 58.6914 53.9111 58.5674 53.6903 58.3467C53.4696 58.126 53.3456 57.8266 53.3456 57.5144V55.2933C53.3456 54.9811 53.4696 54.6817 53.6903 54.461C53.9111 54.2402 54.2105 54.1162 54.5226 54.1162C54.8348 54.1162 55.1342 54.2402 55.355 54.461C55.5757 54.6817 55.6997 54.9811 55.6997 55.2933V57.5144C55.6997 57.8266 55.5757 58.126 55.355 58.3467C55.1342 58.5674 54.8348 58.6914 54.5226 58.6914Z" fill="#2F4858"/>
<path d="M46.5751 64.5142C46.263 64.5142 45.9636 64.3902 45.7428 64.1694C45.5221 63.9487 45.3981 63.6493 45.3981 63.3371V61.116C45.3981 60.8039 45.5221 60.5045 45.7428 60.2837C45.9636 60.063 46.263 59.939 46.5751 59.939C46.8873 59.939 47.1867 60.063 47.4074 60.2837C47.6282 60.5045 47.7522 60.8039 47.7522 61.116V63.3371C47.7522 63.6493 47.6282 63.9487 47.4074 64.1694C47.1867 64.3902 46.8873 64.5142 46.5751 64.5142Z" fill="#2F4858"/>
<path d="M50.5501 66.0137C50.2379 66.0137 49.9385 65.8897 49.7178 65.669C49.4971 65.4482 49.373 65.1488 49.373 64.8367V62.6155C49.373 62.3034 49.4971 62.004 49.7178 61.7832C49.9385 61.5625 50.2379 61.4385 50.5501 61.4385C50.8623 61.4385 51.1617 61.5625 51.3824 61.7832C51.6032 62.004 51.7272 62.3034 51.7272 62.6155V64.8367C51.7272 65.1488 51.6032 65.4482 51.3824 65.669C51.1617 65.8897 50.8623 66.0137 50.5501 66.0137Z" fill="#2F4858"/>
<path d="M54.5226 67.5132C54.2105 67.5132 53.9111 67.3892 53.6903 67.1685C53.4696 66.9477 53.3456 66.6483 53.3456 66.3362V64.115C53.3456 63.8029 53.4696 63.5035 53.6903 63.2827C53.9111 63.062 54.2105 62.938 54.5226 62.938C54.8348 62.938 55.1342 63.062 55.355 63.2827C55.5757 63.5035 55.6997 63.8029 55.6997 64.115V66.3362C55.6997 66.6483 55.5757 66.9477 55.355 67.1685C55.1342 67.3892 54.8348 67.5132 54.5226 67.5132Z" fill="#2F4858"/>
<path d="M69.4102 36.592C69.098 36.592 68.7986 36.468 68.5779 36.2472C68.3572 36.0265 68.2332 35.7271 68.2332 35.4149V34.2249C68.2332 33.9127 68.3572 33.6133 68.5779 33.3926C68.7986 33.1719 69.098 33.0479 69.4102 33.0479C69.7224 33.0479 70.0218 33.1719 70.2425 33.3926C70.4633 33.6133 70.5873 33.9127 70.5873 34.2249V35.4149C70.5873 35.7271 70.4633 36.0265 70.2425 36.2472C70.0218 36.468 69.7224 36.592 69.4102 36.592Z" fill="#2F4858"/>
<path d="M73.3769 39.0851C73.0647 39.0851 72.7653 38.9611 72.5446 38.7404C72.3238 38.5197 72.1998 38.2203 72.1998 37.9081V36.7181C72.1998 36.4059 72.3238 36.1065 72.5446 35.8858C72.7653 35.665 73.0647 35.541 73.3769 35.541C73.6891 35.541 73.9885 35.665 74.2092 35.8858C74.4299 36.1065 74.554 36.4059 74.554 36.7181V37.9081C74.554 38.2203 74.4299 38.5197 74.2092 38.7404C73.9885 38.9611 73.6891 39.0851 73.3769 39.0851Z" fill="#2F4858"/>
<path d="M69.4102 42.4043C69.098 42.4043 68.7986 42.2803 68.5779 42.0595C68.3572 41.8388 68.2332 41.5394 68.2332 41.2272V40.0384C68.2332 39.7262 68.3572 39.4268 68.5779 39.2061C68.7986 38.9853 69.098 38.8613 69.4102 38.8613C69.7224 38.8613 70.0218 38.9853 70.2425 39.2061C70.4633 39.4268 70.5873 39.7262 70.5873 40.0384V41.2284C70.587 41.5404 70.4628 41.8395 70.2421 42.0599C70.0214 42.2804 69.7222 42.4043 69.4102 42.4043Z" fill="#2F4858"/>
<path d="M73.3769 44.8976C73.0647 44.8976 72.7653 44.7736 72.5446 44.5529C72.3238 44.3321 72.1998 44.0327 72.1998 43.7206V42.5364C72.1998 42.2243 72.3238 41.9249 72.5446 41.7041C72.7653 41.4834 73.0647 41.3594 73.3769 41.3594C73.6891 41.3594 73.9885 41.4834 74.2092 41.7041C74.4299 41.9249 74.554 42.2243 74.554 42.5364V43.7264C74.5524 44.0376 74.4277 44.3355 74.2071 44.5549C73.9866 44.7744 73.688 44.8976 73.3769 44.8976Z" fill="#2F4858"/>
<path d="M69.4102 48.218C69.098 48.218 68.7986 48.094 68.5779 47.8732C68.3572 47.6525 68.2332 47.3531 68.2332 47.0409V45.8509C68.2332 45.5387 68.3572 45.2393 68.5779 45.0186C68.7986 44.7978 69.098 44.6738 69.4102 44.6738C69.7224 44.6738 70.0218 44.7978 70.2425 45.0186C70.4633 45.2393 70.5873 45.5387 70.5873 45.8509V47.0409C70.5873 47.3531 70.4633 47.6525 70.2425 47.8732C70.0218 48.094 69.7224 48.218 69.4102 48.218Z" fill="#2F4858"/>
<path d="M73.3769 50.7111C73.0647 50.7111 72.7653 50.5871 72.5446 50.3664C72.3238 50.1456 72.1998 49.8462 72.1998 49.5341V48.3441C72.1998 48.0319 72.3238 47.7325 72.5446 47.5117C72.7653 47.291 73.0647 47.167 73.3769 47.167C73.6891 47.167 73.9885 47.291 74.2092 47.5117C74.4299 47.7325 74.554 48.0319 74.554 48.3441V49.5341C74.554 49.8462 74.4299 50.1456 74.2092 50.3664C73.9885 50.5871 73.6891 50.7111 73.3769 50.7111Z" fill="#2F4858"/>
<path d="M69.4102 54.0314C69.098 54.0314 68.7986 53.9074 68.5779 53.6867C68.3572 53.4659 68.2332 53.1665 68.2332 52.8544V51.6644C68.2332 51.3522 68.3572 51.0528 68.5779 50.8321C68.7986 50.6113 69.098 50.4873 69.4102 50.4873C69.7224 50.4873 70.0218 50.6113 70.2425 50.8321C70.4633 51.0528 70.5873 51.3522 70.5873 51.6644V52.8544C70.5873 53.1665 70.4633 53.4659 70.2425 53.6867C70.0218 53.9074 69.7224 54.0314 69.4102 54.0314Z" fill="#2F4858"/>
<path d="M73.3769 56.5231C73.0647 56.5231 72.7653 56.3991 72.5446 56.1784C72.3238 55.9576 72.1998 55.6583 72.1998 55.3461V54.1561C72.1998 53.8439 72.3238 53.5445 72.5446 53.3238C72.7653 53.103 73.0647 52.979 73.3769 52.979C73.6891 52.979 73.9885 53.103 74.2092 53.3238C74.4299 53.5445 74.554 53.8439 74.554 54.1561V55.3461C74.554 55.6583 74.4299 55.9576 74.2092 56.1784C73.9885 56.3991 73.6891 56.5231 73.3769 56.5231Z" fill="#2F4858"/>
<path d="M69.4102 59.8392C69.098 59.8392 68.7986 59.7152 68.5779 59.4945C68.3572 59.2737 68.2332 58.9743 68.2332 58.6622V57.4769C68.2332 57.1647 68.3572 56.8653 68.5779 56.6446C68.7986 56.4238 69.098 56.2998 69.4102 56.2998C69.7224 56.2998 70.0218 56.4238 70.2425 56.6446C70.4633 56.8653 70.5873 57.1647 70.5873 57.4769V58.6622C70.5873 58.9743 70.4633 59.2737 70.2425 59.4945C70.0218 59.7152 69.7224 59.8392 69.4102 59.8392Z" fill="#2F4858"/>
<path d="M73.3769 62.3366C73.0647 62.3366 72.7653 62.2126 72.5446 61.9919C72.3238 61.7711 72.1998 61.4717 72.1998 61.1595V59.9695C72.1998 59.6574 72.3238 59.358 72.5446 59.1372C72.7653 58.9165 73.0647 58.7925 73.3769 58.7925C73.6891 58.7925 73.9885 58.9165 74.2092 59.1372C74.4299 59.358 74.554 59.6574 74.554 59.9695V61.1595C74.554 61.4717 74.4299 61.7711 74.2092 61.9919C73.9885 62.2126 73.6891 62.3366 73.3769 62.3366Z" fill="#2F4858"/>
<path d="M69.4102 65.6574C69.098 65.6574 68.7986 65.5334 68.5779 65.3127C68.3572 65.0919 68.2332 64.7925 68.2332 64.4803V63.2903C68.2332 62.9782 68.3572 62.6788 68.5779 62.458C68.7986 62.2373 69.098 62.1133 69.4102 62.1133C69.7224 62.1133 70.0218 62.2373 70.2425 62.458C70.4633 62.6788 70.5873 62.9782 70.5873 63.2903V64.4803C70.5873 64.7925 70.4633 65.0919 70.2425 65.3127C70.0218 65.5334 69.7224 65.6574 69.4102 65.6574Z" fill="#2F4858"/>
<path d="M73.3769 68.1491C73.0647 68.1491 72.7653 68.0251 72.5446 67.8044C72.3238 67.5836 72.1998 67.2842 72.1998 66.972V65.782C72.1998 65.4699 72.3238 65.1705 72.5446 64.9497C72.7653 64.729 73.0647 64.605 73.3769 64.605C73.6891 64.605 73.9885 64.729 74.2092 64.9497C74.4299 65.1705 74.554 65.4699 74.554 65.782V66.972C74.554 67.2842 74.4299 67.5836 74.2092 67.8044C73.9885 68.0251 73.6891 68.1491 73.3769 68.1491Z" fill="#2F4858"/>
<path d="M81.2172 72.3937H1.17706C0.864885 72.3937 0.565495 72.2697 0.344753 72.0489C0.124012 71.8282 0 71.5288 0 71.2166C0 70.9044 0.124012 70.605 0.344753 70.3843C0.565495 70.1636 0.864885 70.0396 1.17706 70.0396H81.2172C81.5294 70.0396 81.8288 70.1636 82.0495 70.3843C82.2703 70.605 82.3943 70.9044 82.3943 71.2166C82.3943 71.5288 82.2703 71.8282 82.0495 72.0489C81.8288 72.2697 81.5294 72.3937 81.2172 72.3937Z" fill="#2F4858"/>
</svg>
