<svg width="66" height="66" viewBox="0 0 66 66" fill="none" xmlns="http://www.w3.org/2000/svg">
<path d="M0 3.81227V17.4094C0 18.4615 0.853948 19.3155 1.90613 19.3155H18.1718C19.224 19.3155 20.078 18.4615 20.078 17.4094V3.81227C20.078 1.71044 18.3675 0 16.2657 0H3.81227C1.71044 0 0 1.71044 0 3.81227Z" fill="#FF8E00"/>
<path d="M9.91455 0H16.2658C18.3676 0 20.0781 1.71044 20.0781 3.81227V17.4094C20.0781 18.4615 19.2241 19.3155 18.1719 19.3155H9.91455V0Z" fill="#FF6326"/>
<path d="M0 32.6586C0 33.7108 0.853948 34.5648 1.90613 34.5648H18.1718C19.224 34.5648 20.078 33.7108 20.078 32.6586V15.5034H0V32.6586Z" fill="#FFD321"/>
<path d="M9.91455 15.5034H20.0781V32.6586C20.0781 33.7108 19.2241 34.5648 18.1719 34.5648H9.91455V15.5034Z" fill="#FF8E00"/>
<path d="M0 30.7524V44.9849C0 44.9849 3.80592 44.957 3.80592 48.7908V48.7972H18.1718C19.224 48.7972 20.078 47.9432 20.078 46.8911V30.7524H0Z" fill="#FFF16B"/>
<path d="M9.91455 48.7972V30.7524H20.0781V46.8911C20.0781 47.9432 19.2241 48.7972 18.1719 48.7972H9.91455Z" fill="#FFD321"/>
<path d="M26.8531 5.70022L20.0545 17.4757C19.5284 18.3869 19.841 19.5534 20.7522 20.0795L34.8386 28.2123C35.7499 28.7384 36.9163 28.4258 37.4424 27.5147L44.241 15.7392C45.2919 13.919 44.6658 11.5824 42.8456 10.5315L32.0606 4.30481C30.2404 3.25389 27.904 3.87999 26.8531 5.70022Z" fill="#BD2E4A"/>
<path d="M37.3451 7.35596L42.8455 10.5316C44.6657 11.5825 45.2918 13.919 44.2409 15.7393L37.4423 27.5147C36.9162 28.426 35.7497 28.7385 34.8386 28.2124L27.6875 24.0837L37.3451 7.35596Z" fill="#A3264A"/>
<path d="M12.4299 30.682C11.9038 31.5933 12.2164 32.7597 13.1275 33.2858L27.214 41.4186C28.1253 41.9447 29.2917 41.6321 29.8178 40.721L38.3954 25.8642L21.0074 15.8252L12.4299 30.682Z" fill="#DC455B"/>
<path d="M29.5935 20.7822L38.3954 25.864L29.8178 40.7208C29.2917 41.632 28.1252 41.9445 27.214 41.4184L20.063 37.2897L29.5935 20.7822Z" fill="#BD2E4A"/>
<path d="M5.31369 43.0077C4.7876 43.9189 5.1002 45.0853 6.01134 45.6114L20.0978 53.7443C21.0091 54.2704 22.1755 53.9578 22.7016 53.0466L30.7709 39.0702L13.3829 29.0312L5.31369 43.0077Z" fill="#E27A4E"/>
<path d="M12.9468 49.6155L21.9691 33.9883L30.771 39.07L22.7017 53.0465C22.1756 53.9577 21.0091 54.2702 20.098 53.7441L12.9468 49.6155Z" fill="#DC455B"/>
<path d="M20.078 49.3322L19.806 49.1746L17.1501 47.6408L14.8526 46.3142L12.55 44.9849L9.89411 43.4511L6.2661 41.3569L4.17189 44.9849L2.63809 47.6408L0 52.2092V60.924L2.45129 62.3384L4.81363 63.7019L7.17088 65.0629H15.7637L17.3369 62.3384L19.806 58.061L20.078 57.5896L21.486 55.151L23.6539 51.3959L20.078 49.3322Z" fill="#BEBCDD"/>
<path d="M49.1792 20.7706L37.4037 27.5692C36.4924 28.0953 36.18 29.2618 36.7061 30.173L44.8389 44.2594C45.365 45.1707 46.5315 45.4832 47.4427 44.9571L59.2181 38.1585C61.0384 37.1076 61.6645 34.7711 60.6136 32.9508L54.3869 22.1659C53.3358 20.3458 50.9994 19.7197 49.1792 20.7706Z" fill="#4793FF"/>
<path d="M57.4378 27.4507L60.6134 32.951C61.6644 34.7713 61.0383 37.1078 59.218 38.1587L47.4426 44.9573C46.5313 45.4834 45.3649 45.1707 44.8388 44.2596L40.7101 37.1086L57.4378 27.4507Z" fill="#005EDF"/>
<path d="M24.1975 35.1935C23.2863 35.7195 22.9738 36.8861 23.4999 37.7972L31.6327 51.8837C32.1588 52.795 33.3254 53.1074 34.2365 52.5813L49.0933 44.0037L39.0543 26.6157L24.1975 35.1935Z" fill="#8BB9FF"/>
<path d="M44.0117 35.2021L49.0934 44.004L34.2366 52.5817C33.3254 53.1077 32.1589 52.7951 31.6328 51.884L27.5042 44.733L44.0117 35.2021Z" fill="#4793FF"/>
<path d="M11.872 42.3097C10.9607 42.8358 10.6482 44.0023 11.1743 44.9134L19.3072 58.9999C19.8332 59.9112 20.9998 60.2236 21.9109 59.6976L35.8873 51.6283L25.8484 34.2402L11.872 42.3097Z" fill="#B1D5F1"/>
<path d="M15.1785 51.849L30.8057 42.8267L35.8875 51.6286L21.9111 59.6979C20.9998 60.224 19.8334 59.9113 19.3073 59.0002L15.1785 51.849Z" fill="#8BB9FF"/>
<path d="M21.486 55.151L20.078 52.7124L19.806 52.241L18.4793 49.9434L17.1501 47.6408L15.6163 44.9849L13.5221 41.3569L9.89411 43.4511L7.23823 44.9849L2.63809 47.6408L0 49.1632V58.0915L1.09158 59.9824L2.45129 62.3384L4.02449 65.0629H12.6173L17.3369 62.3384L19.806 60.9126L20.078 60.755L23.5611 58.7447L21.486 55.151Z" fill="#E2DFF4"/>
<path d="M61.2504 44.9849H47.6533C46.6011 44.9849 45.7472 45.8388 45.7472 46.891V63.1567C45.7472 64.2089 46.6011 65.0628 47.6533 65.0628H61.2504C63.3523 65.0628 65.0627 63.3524 65.0627 61.2505V48.7971C65.0627 46.6953 63.3523 44.9849 61.2504 44.9849Z" fill="#5E54AC"/>
<path d="M65.0627 54.8994V61.2507C65.0627 63.3525 63.3523 65.0629 61.2504 65.0629H47.6533C46.6011 65.0629 45.7472 64.209 45.7472 63.1568V54.8994H65.0627Z" fill="#38336B"/>
<path d="M32.4043 44.9849C31.3521 44.9849 30.4982 45.8388 30.4982 46.891V63.1567C30.4982 64.2089 31.3521 65.0628 32.4043 65.0628H49.5595V44.9849H32.4043Z" fill="#7873D5"/>
<path d="M49.5595 54.8994V65.0629H32.4043C31.3521 65.0629 30.4982 64.209 30.4982 63.1568V54.8994H49.5595Z" fill="#5E54AC"/>
<path d="M18.1718 44.9849C17.1196 44.9849 16.2656 45.8388 16.2656 46.891V63.1567C16.2656 64.2089 17.1196 65.0628 18.1718 65.0628H34.3104V44.9849H18.1718Z" fill="#B7B4E7"/>
<path d="M16.2656 54.8994H34.3104V65.0629H18.1718C17.1196 65.0629 16.2656 64.209 16.2656 63.1568V54.8994Z" fill="#7873D5"/>
<path d="M20.078 44.9849H0V63.1567C0 64.2094 0.85344 65.0628 1.90613 65.0628H20.078V44.9849Z" fill="#F4F4F6"/>
<path d="M0 54.8994H20.078V65.0629H1.90613C0.853948 65.0629 0 64.209 0 63.1568V54.8994Z" fill="#E2DFF4"/>
<path d="M11.9464 54.8992C11.9464 54.9602 11.9425 55.0225 11.9362 55.0847C11.8333 56.0772 11.0035 56.8028 10.0389 56.8028C8.9982 56.8028 8.13408 55.9539 8.13281 54.8992C8.13281 54.8979 8.13281 54.8979 8.13281 54.8966C8.13281 53.772 9.11384 52.8863 10.227 53.0007C11.1775 53.0782 11.9502 53.9156 11.9464 54.8992Z" fill="#0A617D"/>
<path d="M11.9464 54.8994C11.9464 54.9604 11.9425 55.0227 11.9362 55.0849C11.8333 56.0774 11.0035 56.803 10.0389 56.803C8.9982 56.803 8.13408 55.9541 8.13281 54.8994H11.9464Z" fill="#05303D"/>
</svg>
