<svg width="76" height="75" viewBox="0 0 76 75" fill="none" xmlns="http://www.w3.org/2000/svg">
<path d="M74.9335 8.31655C74.5764 8.03897 74.1113 7.94185 73.6733 8.05332L66.7043 9.82532C65.5852 10.1096 64.4325 10.2539 63.2782 10.2539H53.0509C49.7332 10.2539 46.9619 12.6344 46.4616 15.9145C46.1812 17.7528 44.6277 19.087 42.7683 19.087H42.394V16.0271C44.9204 14.523 46.6174 11.7655 46.6174 8.61786C46.6176 3.86597 42.7516 0 37.9995 0C33.2475 0 29.3817 3.86597 29.3817 8.61786C29.3817 11.7655 31.0787 14.523 33.6051 16.0271V19.087H33.2308C31.3714 19.087 29.8179 17.7528 29.5375 15.9145C29.0372 12.6344 26.2659 10.2539 22.9482 10.2539H12.7209C11.5666 10.2539 10.4139 10.1098 9.29496 9.82532L2.32576 8.05347C1.88807 7.94214 1.42269 8.03911 1.06557 8.3167C0.708738 8.59413 0.5 9.02098 0.5 9.47303C0.5 12.5651 1.69295 15.383 3.64088 17.4941C3.68365 21.0491 5.36806 24.2143 7.97003 26.2689L9.34799 28.1105C12.4899 32.3098 17.4971 34.817 22.7421 34.817C26.7654 34.817 30.5782 33.4027 33.6051 30.811V36.035H32.2913C27.0681 36.035 22.8187 40.2845 22.8187 45.5076C22.8187 47.1037 23.2237 48.6822 23.9897 50.0726C24.2565 50.5572 24.7574 50.8309 25.274 50.8309C25.5131 50.8309 25.7555 50.7723 25.9795 50.6488C26.6882 50.2585 26.9461 49.3676 26.5557 48.659C26.0277 47.7003 25.7483 46.6106 25.7483 45.5076C25.7483 41.8997 28.6834 38.9647 32.2913 38.9647H33.6051V52.0504H30.1627C26.2993 52.0504 23.156 55.1936 23.156 59.0572C23.156 62.9207 26.2993 66.0639 30.1627 66.0639H34.2355C34.7434 68.8146 35.5556 71.5049 36.6717 74.1113C36.9024 74.6502 37.4321 74.9994 38.0182 74.9994H38.0208C38.6079 74.9984 39.1377 74.6469 39.3668 74.1063L39.3957 74.0382C40.4881 71.4542 41.283 68.7882 41.7794 66.0639H43.4439C45.0997 66.0639 46.4468 67.411 46.4468 69.0668C46.4468 70.7227 45.0997 72.0697 43.4439 72.0697H43.3444C42.5355 72.0697 41.8796 72.7257 41.8796 73.5346C41.8796 74.3434 42.5355 74.9994 43.3444 74.9994H43.4439C46.7151 74.9994 49.3764 72.3381 49.3764 69.0668C49.3764 65.7956 46.7151 63.1343 43.4439 63.1343H42.196C42.3272 61.8489 42.394 60.5527 42.394 59.2477V54.98H43.3706C48.5938 54.98 52.8431 50.7307 52.8431 45.5076C52.8431 40.2845 48.5938 36.035 43.3706 36.035H42.394V30.811C45.4211 33.4029 49.2337 34.817 53.257 34.817C58.5018 34.817 63.5088 32.31 66.6511 28.1105L68.0291 26.2689C70.6312 24.2143 72.3154 21.049 72.3582 17.494C74.3063 15.383 75.4991 12.5651 75.4991 9.47303C75.4991 9.02098 75.2904 8.59413 74.9335 8.31655ZM32.4454 27.8991C29.8452 30.471 26.3992 31.8874 22.7421 31.8874C19.4839 31.8874 16.3373 30.714 13.875 28.6552C14.2427 28.6913 14.6152 28.7107 14.9923 28.7107H17.4453C18.2541 28.7107 18.9101 28.0548 18.9101 27.2459C18.9101 26.437 18.2541 25.7811 17.4453 25.7811H14.9923C11.2849 25.7811 8.13131 23.3726 7.00793 20.039C8.61118 20.8514 10.4214 21.3125 12.3383 21.3128L15.368 21.3132C16.1767 21.3132 16.8328 20.6574 16.833 19.8485C16.8331 19.0397 16.1773 18.3837 15.3683 18.3836L12.3386 18.3831C8.09161 18.3825 4.52915 15.3947 3.64205 11.4108L8.57339 12.6646C9.92806 13.0091 11.3235 13.1836 12.7209 13.1836H22.9482C24.8078 13.1836 26.3611 14.5177 26.6414 16.3561C27.1418 19.6361 29.9131 22.0166 33.2308 22.0166H33.6051V26.7521L32.4454 27.8991ZM30.1627 63.1341C27.9147 63.1341 26.0857 61.3052 26.0857 59.0571C26.0857 56.8089 27.9147 54.9799 30.1627 54.9799H33.6051V59.1604C33.6051 60.4951 33.6752 61.8203 33.8123 63.1341H30.1627ZM39.4644 59.2475C39.4644 62.6582 38.977 66.0055 38.0126 69.2395C37.0307 65.9787 36.5347 62.6029 36.5347 59.1604V54.9799H39.4644V59.2475ZM39.4644 52.0503H36.5347V17.1087C37.0111 17.1908 37.5 17.2359 37.9995 17.2359C38.4991 17.2359 38.988 17.1908 39.4644 17.1087V52.0503ZM43.3706 38.9645C46.9783 38.9645 49.9134 41.8996 49.9134 45.5075C49.9134 49.1152 46.9783 52.0503 43.3706 52.0503H42.394V38.9645H43.3706ZM37.9995 14.3061C34.8629 14.3061 32.3113 11.7543 32.3113 8.61786C32.3113 5.48138 34.8631 2.92965 37.9995 2.92965C41.136 2.92965 43.6878 5.48138 43.6878 8.61786C43.6878 11.7543 41.1362 14.3061 37.9995 14.3061ZM63.6605 18.3831L60.6311 18.3836C59.8221 18.3837 59.1663 19.0397 59.1664 19.8485C59.1666 20.6576 59.8225 21.3134 60.6314 21.3132L63.6611 21.3128C65.578 21.3125 67.3882 20.8515 68.9915 20.039C67.8681 23.3726 64.7143 25.7811 61.0071 25.7811H58.554C57.7451 25.7811 57.0892 26.437 57.0892 27.2459C57.0892 28.0548 57.7451 28.7107 58.554 28.7107H61.007C61.384 28.7107 61.7564 28.6913 62.1241 28.6552C59.6617 30.714 56.5152 31.8874 53.2572 31.8874C49.6001 31.8874 46.1541 30.471 43.5539 27.8992L42.394 26.7521V22.0166H42.7683C46.086 22.0166 48.8573 19.6361 49.3577 16.3561C49.638 14.5177 51.1913 13.1836 53.0509 13.1836H63.2782C64.6756 13.1836 66.071 13.0091 67.4259 12.6646L72.357 11.4108C71.4699 15.3946 67.9075 18.3825 63.6605 18.3831Z" fill="#2F4858"/>
</svg>
