<svg width="40" height="40" viewBox="0 0 50 49" fill="none" xmlns="http://www.w3.org/2000/svg">
<path d="M29.0562 8.72046C31.5659 9.68668 33.9975 11.3037 36.0877 13.3923C38.1732 15.4779 39.7948 17.9172 40.7794 20.4468C40.9923 20.9919 41.5129 21.3257 42.0641 21.3257C42.231 21.3257 42.3995 21.2951 42.5649 21.2308C43.2738 20.9536 43.6245 20.1558 43.3489 19.4453C42.2265 16.5635 40.389 13.7966 38.0354 11.443C35.6742 9.08184 32.9134 7.252 30.0469 6.14796C29.3379 5.87387 28.5386 6.22759 28.2645 6.93809C27.9904 7.64859 28.3472 8.4479 29.0562 8.72046Z" fill="#F26100"/>
<path d="M30.099 13.248C29.3855 12.9862 28.5923 13.346 28.3274 14.0596C28.0625 14.7731 28.4254 15.5663 29.1389 15.8312C30.0546 16.1712 30.9871 16.799 31.8355 17.6473C32.6715 18.4833 33.3162 19.4404 33.6515 20.3438C33.8582 20.8997 34.385 21.2427 34.9439 21.2427C35.1031 21.2427 35.2655 21.2136 35.4232 21.1554C36.1367 20.8905 36.4996 20.0973 36.2347 19.3837C35.757 18.099 34.9102 16.825 33.7832 15.698C32.6577 14.5741 31.3837 13.7258 30.099 13.248Z" fill="#F26100"/>
<path d="M20.8947 28.6051C18.5672 26.2776 16.8062 23.408 15.6394 19.9703C15.4526 19.4206 15.6088 18.802 16.0192 18.3916L19.6054 14.8054C21.4 13.0108 21.4 10.103 19.6054 8.30834L15.6991 4.40212C13.9045 2.6075 10.9967 2.6075 9.20205 4.40212L7.57586 6.02831C4.66036 8.94381 3.10921 13.0368 3.66964 17.1192C4.59146 24.0588 7.86833 30.3675 13.4896 36.0117C19.1337 41.6329 25.4425 44.9098 32.3821 45.8316C36.4644 46.3921 40.5575 44.8409 43.473 41.9254L45.0991 40.2992C46.8938 38.5046 46.8938 35.5967 45.0991 33.8021L41.1929 29.8959C39.3983 28.1013 36.4905 28.1013 34.6958 29.8959L31.1096 33.4821C30.6993 33.8925 30.0806 34.0487 29.5309 33.8618C26.0917 32.6935 23.2222 30.9341 20.8947 28.6051Z" fill="#F26100"/>
</svg>
