<svg width="66" height="66" viewBox="0 0 66 66" fill="none" xmlns="http://www.w3.org/2000/svg">
<g clip-path="url(#clip0_297_451)">
<path d="M31.7408 55.0001H6.59905C4.16904 55.0001 2.19922 53.0302 2.19922 50.6003V46.2002H35.9671L31.7408 55.0001Z" fill="#D3DCFB"/>
<path d="M59.4034 19.7999V38.2848V50.5997H6.59905C4.16904 50.5997 2.19922 48.6298 2.19922 46.1998V19.7999L33.0014 8.7998L59.4034 19.7999Z" fill="#EBF5FC"/>
<path d="M9.96929 28.6002H7.63184C7.06233 28.6002 6.60059 28.1384 6.60059 27.5689V25.2314C6.60059 24.6619 7.06233 24.2002 7.63184 24.2002H9.96929C10.5388 24.2002 11.0005 24.6619 11.0005 25.2314V27.5689C11.0005 28.1384 10.5388 28.6002 9.96929 28.6002Z" fill="#3C58A0"/>
<path d="M18.7693 28.6002H16.4319C15.8624 28.6002 15.4006 28.1384 15.4006 27.5689V25.2314C15.4006 24.6619 15.8624 24.2002 16.4319 24.2002H18.7693C19.3388 24.2002 19.8006 24.6619 19.8006 25.2314V27.5689C19.8006 28.1384 19.3388 28.6002 18.7693 28.6002Z" fill="#3C58A0"/>
<path d="M27.5691 28.6002H25.2317C24.6622 28.6002 24.2004 28.1384 24.2004 27.5689V25.2314C24.2004 24.6619 24.6622 24.2002 25.2317 24.2002H27.5691C28.1387 24.2002 28.6004 24.6619 28.6004 25.2314V27.5689C28.6004 28.1384 28.1388 28.6002 27.5691 28.6002Z" fill="#3C58A0"/>
<path d="M36.3692 28.6002H34.0317C33.4622 28.6002 33.0005 28.1384 33.0005 27.5689V25.2314C33.0005 24.6619 33.4622 24.2002 34.0317 24.2002H36.3692C36.9387 24.2002 37.4004 24.6619 37.4004 25.2314V27.5689C37.4004 28.1384 36.9387 28.6002 36.3692 28.6002Z" fill="#3C58A0"/>
<path d="M45.1678 28.6002H42.8303C42.2608 28.6002 41.7991 28.1384 41.7991 27.5689V25.2314C41.7991 24.6619 42.2608 24.2002 42.8303 24.2002H45.1678C45.7373 24.2002 46.199 24.6619 46.199 25.2314V27.5689C46.199 28.1384 45.7374 28.6002 45.1678 28.6002Z" fill="#3C58A0"/>
<path d="M53.9678 28.6002H51.6304C51.0609 28.6002 50.5991 28.1384 50.5991 27.5689V25.2314C50.5991 24.6619 51.0609 24.2002 51.6304 24.2002H53.9678C54.5373 24.2002 54.9991 24.6619 54.9991 25.2314V27.5689C54.9991 28.1384 54.5373 28.6002 53.9678 28.6002Z" fill="#3C58A0"/>
<path d="M9.96929 37.4H7.63184C7.06233 37.4 6.60059 36.9382 6.60059 36.3687V34.0312C6.60059 33.4617 7.06233 33 7.63184 33H9.96929C10.5388 33 11.0005 33.4617 11.0005 34.0312V36.3687C11.0005 36.9383 10.5388 37.4 9.96929 37.4Z" fill="#3C58A0"/>
<path d="M18.7693 37.4H16.4319C15.8624 37.4 15.4006 36.9382 15.4006 36.3687V34.0312C15.4006 33.4617 15.8624 33 16.4319 33H18.7693C19.3388 33 19.8006 33.4617 19.8006 34.0312V36.3687C19.8006 36.9383 19.3388 37.4 18.7693 37.4Z" fill="#3C58A0"/>
<path d="M27.5691 37.4H25.2317C24.6622 37.4 24.2004 36.9382 24.2004 36.3687V34.0312C24.2004 33.4617 24.6622 33 25.2317 33H27.5691C28.1387 33 28.6004 33.4617 28.6004 34.0312V36.3687C28.6004 36.9383 28.1388 37.4 27.5691 37.4Z" fill="#3C58A0"/>
<path d="M37.4004 37.4V34.1C37.4004 33.4924 36.908 33 36.3005 33H34.1004C33.4929 33 33.0005 33.4924 33.0005 34.1V36.3C33.0005 36.9075 33.493 37.4 34.1004 37.4H37.4004Z" fill="#3C58A0"/>
<path d="M9.96929 46.2002H7.63184C7.06233 46.2002 6.60059 45.7385 6.60059 45.169V42.8315C6.60059 42.262 7.06233 41.8003 7.63184 41.8003H9.96929C10.5388 41.8003 11.0005 42.262 11.0005 42.8315V45.169C11.0005 45.7385 10.5388 46.2002 9.96929 46.2002Z" fill="#3C58A0"/>
<path d="M18.7693 46.2002H16.4319C15.8624 46.2002 15.4006 45.7385 15.4006 45.169V42.8315C15.4006 42.262 15.8624 41.8003 16.4319 41.8003H18.7693C19.3388 41.8003 19.8006 42.262 19.8006 42.8315V45.169C19.8006 45.7385 19.3388 46.2002 18.7693 46.2002Z" fill="#3C58A0"/>
<path d="M27.5691 46.2002H25.2317C24.6622 46.2002 24.2004 45.7385 24.2004 45.169V42.8315C24.2004 42.262 24.6622 41.8003 25.2317 41.8003H27.5691C28.1387 41.8003 28.6004 42.262 28.6004 42.8315V45.169C28.6004 45.7385 28.1388 46.2002 27.5691 46.2002Z" fill="#3C58A0"/>
<path d="M53.9367 24.2002H51.6615C51.5239 24.2002 51.3928 24.2273 51.272 24.2748C51.6658 24.4303 51.9447 24.8134 51.9447 25.2625V27.5377C51.9447 27.9868 51.6657 28.3699 51.272 28.5254C51.3928 28.5731 51.5239 28.6002 51.6615 28.6002H53.9367C54.5235 28.6002 54.9992 28.1245 54.9992 27.5378V25.2626C54.999 24.6759 54.5234 24.2002 53.9367 24.2002Z" fill="#2A428C"/>
<path d="M45.1367 24.2002H42.8615C42.7238 24.2002 42.5927 24.2273 42.4719 24.2748C42.8657 24.4303 43.1447 24.8134 43.1447 25.2625V27.5377C43.1447 27.9868 42.8656 28.3699 42.4719 28.5254C42.5927 28.5731 42.7238 28.6002 42.8615 28.6002H45.1367C45.7235 28.6002 46.199 28.1245 46.199 27.5378V25.2626C46.199 24.6759 45.7235 24.2002 45.1367 24.2002Z" fill="#2A428C"/>
<path d="M36.3381 24.2002H34.0629C33.9252 24.2002 33.7941 24.2273 33.6733 24.2748C34.0671 24.4303 34.3462 24.8134 34.3462 25.2625V27.5377C34.3462 27.9868 34.0671 28.3699 33.6733 28.5254C33.7941 28.5731 33.9252 28.6002 34.0629 28.6002H36.3381C36.9249 28.6002 37.4005 28.1245 37.4005 27.5378V25.2626C37.4004 24.6759 36.9247 24.2002 36.3381 24.2002Z" fill="#2A428C"/>
<path d="M27.538 24.2002H25.2628C25.1252 24.2002 24.9941 24.2273 24.8733 24.2748C25.2671 24.4303 25.5462 24.8134 25.5462 25.2625V27.5377C25.5462 27.9868 25.2671 28.3699 24.8733 28.5254C24.9941 28.5731 25.1252 28.6002 25.2628 28.6002H27.538C28.1248 28.6002 28.6005 28.1245 28.6005 27.5378V25.2626C28.6004 24.6759 28.1248 24.2002 27.538 24.2002Z" fill="#2A428C"/>
<path d="M18.738 24.2002H16.4628C16.3251 24.2002 16.194 24.2273 16.0732 24.2748C16.4671 24.4303 16.746 24.8134 16.746 25.2625V27.5377C16.746 27.9868 16.4669 28.3699 16.0732 28.5254C16.194 28.5731 16.3251 28.6002 16.4628 28.6002H18.738C19.3248 28.6002 19.8004 28.1245 19.8004 27.5378V25.2626C19.8004 24.6759 19.3248 24.2002 18.738 24.2002Z" fill="#2A428C"/>
<path d="M9.93819 24.2002H7.66299C7.52532 24.2002 7.39422 24.2273 7.27344 24.2748C7.66725 24.4303 7.94633 24.8134 7.94633 25.2625V27.5377C7.94633 27.9868 7.66725 28.3699 7.27344 28.5254C7.39422 28.5731 7.52532 28.6002 7.66299 28.6002H9.93819C10.525 28.6002 11.0006 28.1245 11.0006 27.5378V25.2626C11.0005 24.6759 10.5248 24.2002 9.93819 24.2002Z" fill="#2A428C"/>
<path d="M9.93819 33H7.66299C7.52532 33 7.39422 33.0271 7.27344 33.0746C7.66725 33.2301 7.94633 33.6132 7.94633 34.0623V36.3376C7.94633 36.7867 7.66725 37.1699 7.27344 37.3253C7.39422 37.373 7.52532 37.4001 7.66299 37.4001H9.93819C10.525 37.4001 11.0006 36.9244 11.0006 36.3378V34.0624C11.0005 33.4757 10.5248 33 9.93819 33Z" fill="#2A428C"/>
<path d="M9.93819 41.7998H7.66299C7.52532 41.7998 7.39422 41.8269 7.27344 41.8744C7.66725 42.0299 7.94633 42.413 7.94633 42.8621V45.1374C7.94633 45.5866 7.66725 45.9697 7.27344 46.1251C7.39422 46.1728 7.52532 46.1999 7.66299 46.1999H9.93819C10.525 46.1999 11.0006 45.7242 11.0006 45.1376V42.8623C11.0005 42.2753 10.5248 41.7998 9.93819 41.7998Z" fill="#2A428C"/>
<path d="M18.738 33H16.4628C16.3251 33 16.194 33.0271 16.0732 33.0746C16.4671 33.2301 16.746 33.6132 16.746 34.0623V36.3376C16.746 36.7867 16.4669 37.1699 16.0732 37.3253C16.194 37.373 16.3251 37.4001 16.4628 37.4001H18.738C19.3248 37.4001 19.8004 36.9244 19.8004 36.3378V34.0624C19.8004 33.4757 19.3248 33 18.738 33Z" fill="#2A428C"/>
<path d="M18.738 41.7998H16.4628C16.3251 41.7998 16.194 41.8269 16.0732 41.8744C16.4671 42.0299 16.746 42.413 16.746 42.8621V45.1374C16.746 45.5866 16.4669 45.9697 16.0732 46.1251C16.194 46.1728 16.3251 46.1999 16.4628 46.1999H18.738C19.3248 46.1999 19.8004 45.7242 19.8004 45.1376V42.8623C19.8004 42.2753 19.3248 41.7998 18.738 41.7998Z" fill="#2A428C"/>
<path d="M27.538 33H25.2628C25.1252 33 24.9941 33.0271 24.8733 33.0746C25.2671 33.2301 25.5462 33.6132 25.5462 34.0623V36.3376C25.5462 36.7867 25.2671 37.1699 24.8733 37.3253C24.9941 37.373 25.1252 37.4001 25.2628 37.4001H27.538C28.1248 37.4001 28.6005 36.9244 28.6005 36.3378V34.0624C28.6004 33.4757 28.1248 33 27.538 33Z" fill="#2A428C"/>
<path d="M37.4005 37.4V34.0623C37.4005 33.4755 36.9249 33 36.3381 33H34.0629C33.9252 33 33.7941 33.0271 33.6733 33.0746C34.0671 33.2301 34.3462 33.6132 34.3462 34.0623V36.3376C34.3462 36.7867 34.0671 37.1699 33.6733 37.3253C33.7941 37.373 33.9252 37.4001 34.0629 37.4001H37.4005V37.4Z" fill="#2A428C"/>
<path d="M27.538 41.7998H25.2628C25.1252 41.7998 24.9941 41.8269 24.8733 41.8744C25.2671 42.0299 25.5462 42.413 25.5462 42.8621V45.1374C25.5462 45.5866 25.2671 45.9697 24.8733 46.1251C24.9941 46.1728 25.1252 46.1999 25.2628 46.1999H27.538C28.1248 46.1999 28.6005 45.7242 28.6005 45.1376V42.8623C28.6004 42.2753 28.1248 41.7998 27.538 41.7998Z" fill="#2A428C"/>
<path d="M56.3469 18.5264V38.2847V50.5998H59.4034V38.2847V19.7998L56.3469 18.5264Z" fill="#D3DCFB"/>
<path d="M59.4034 19.7998V8.79973C59.4034 6.36972 57.4335 4.3999 55.0036 4.3999H6.59905C4.16904 4.3999 2.19922 6.36972 2.19922 8.79973V19.7998H59.4034Z" fill="#FF4155"/>
<path d="M16.063 9.79606H13.1991C12.6489 9.79606 12.2031 9.35017 12.2031 8.80013C12.2031 8.25009 12.649 7.8042 13.1991 7.8042H16.063C16.6131 7.8042 17.0589 8.25009 17.0589 8.80013C17.0589 9.35017 16.613 9.79606 16.063 9.79606Z" fill="#E80054"/>
<path d="M23.0989 9.79606H20.2349C19.6848 9.79606 19.239 9.35017 19.239 8.80013C19.239 8.25009 19.6849 7.8042 20.2349 7.8042H23.0989C23.649 7.8042 24.0948 8.25009 24.0948 8.80013C24.0948 9.35017 23.649 9.79606 23.0989 9.79606Z" fill="#E80054"/>
<path d="M41.3644 9.79606H38.5003C37.9502 9.79606 37.5044 9.35017 37.5044 8.80013C37.5044 8.25009 37.9503 7.8042 38.5003 7.8042H41.3644C41.9145 7.8042 42.3603 8.25009 42.3603 8.80013C42.3603 9.35017 41.9145 9.79606 41.3644 9.79606Z" fill="#E80054"/>
<path d="M48.4005 9.79606H45.5365C44.9863 9.79606 44.5405 9.35017 44.5405 8.80013C44.5405 8.25009 44.9864 7.8042 45.5365 7.8042H48.4005C48.9507 7.8042 49.3964 8.25009 49.3964 8.80013C49.3964 9.35017 48.9505 9.79606 48.4005 9.79606Z" fill="#E80054"/>
<path d="M20.8991 8.25C20.8991 9.76877 19.6679 11 18.1491 11C16.6304 11 15.3992 9.76877 15.3992 8.25V2.74996C15.399 1.23118 16.6302 0 18.149 0C19.6678 0 20.899 1.23118 20.899 2.74996V8.25H20.8991Z" fill="#EBF5FC"/>
<path d="M46.2005 8.25C46.2005 9.76877 44.9693 11 43.4505 11C41.9318 11 40.7004 9.76877 40.7004 8.25V2.74996C40.7004 1.23118 41.9316 0 43.4504 0C44.9692 0 46.2004 1.23118 46.2004 2.74996V8.25H46.2005Z" fill="#EBF5FC"/>
<path d="M43.4503 0C42.8857 0 42.3613 0.170672 41.9246 0.462516C42.6625 0.955711 43.1489 1.79579 43.1489 2.75009V8.25C43.1489 9.20417 42.6625 10.0444 41.9246 10.5376C42.3612 10.8293 42.8857 11.0001 43.4503 11.0001C44.9691 11.0001 46.2003 9.7689 46.2003 8.25013V2.74996C46.2004 1.23118 44.9692 0 43.4503 0Z" fill="#D3DCFB"/>
<path d="M18.149 0C17.5844 0 17.06 0.170672 16.6233 0.462516C17.3613 0.955711 17.8476 1.79579 17.8476 2.75009V8.25C17.8476 9.20417 17.3613 10.0444 16.6233 10.5376C17.0599 10.8293 17.5844 11.0001 18.149 11.0001C19.6678 11.0001 20.899 9.7689 20.899 8.25013V2.74996C20.8991 1.23118 19.6679 0 18.149 0Z" fill="#D3DCFB"/>
<path d="M55.0035 4.3999H51.948C54.378 4.3999 56.3478 6.36972 56.3478 8.79973V19.7999H59.4032V8.79986C59.4033 6.36985 57.4333 4.3999 55.0035 4.3999Z" fill="#E80054"/>
<path d="M2.19897 14.4038H59.4033V16.3958H2.19897V14.4038Z" fill="#E80054"/>
<path d="M47.3013 66C56.414 66 63.8013 58.6127 63.8013 49.5C63.8013 40.3873 56.414 33 47.3013 33C38.1886 33 30.8013 40.3873 30.8013 49.5C30.8013 58.6127 38.1886 66 47.3013 66Z" fill="#4FABF7"/>
<path d="M47.3012 61.6C53.9839 61.6 59.4013 56.1826 59.4013 49.4999C59.4013 42.8173 53.9839 37.3999 47.3012 37.3999C40.6185 37.3999 35.2012 42.8173 35.2012 49.4999C35.2012 56.1826 40.6185 61.6 47.3012 61.6Z" fill="#EBF5FC"/>
<path d="M47.3011 48.2961C46.7509 48.2961 46.3052 47.8502 46.3052 47.3002V41.8001C46.3052 41.2501 46.7511 40.8042 47.3011 40.8042C47.8513 40.8042 48.297 41.2501 48.297 41.8001V47.3002C48.297 47.8502 47.8511 48.2961 47.3011 48.2961Z" fill="#3C58A0"/>
<path d="M52.8012 50.4958H49.5011C48.9509 50.4958 48.5051 50.0499 48.5051 49.4998C48.5051 48.9498 48.951 48.5039 49.5011 48.5039H52.8012C53.3514 48.5039 53.7971 48.9498 53.7971 49.4998C53.7971 50.0499 53.3512 50.4958 52.8012 50.4958Z" fill="#3C58A0"/>
<path d="M47.3012 33C46.7862 33 46.277 33.0249 45.7741 33.071C54.1706 33.8418 60.7468 40.9023 60.7468 49.5C60.7468 58.0977 54.1705 65.1582 45.7739 65.929C46.2769 65.9751 46.7861 66 47.3011 66C56.4137 66 63.8011 58.6126 63.8011 49.5C63.8011 40.3874 56.4138 33 47.3012 33Z" fill="#1886EA"/>
<path d="M47.3013 37.3999C46.7844 37.3999 46.275 37.4325 45.7751 37.4954C51.7373 38.2458 56.3491 43.3342 56.3491 49.4999C56.3491 55.6657 51.7373 60.7541 45.7751 61.5045C46.275 61.5674 46.7844 61.6 47.3013 61.6C53.9839 61.6 59.4013 56.1826 59.4013 49.4999C59.4013 42.8173 53.9839 37.3999 47.3013 37.3999Z" fill="#D3DCFB"/>
<path d="M47.3011 51.6999C48.5162 51.6999 49.5012 50.7149 49.5012 49.4998C49.5012 48.2848 48.5162 47.2998 47.3011 47.2998C46.0861 47.2998 45.1011 48.2848 45.1011 49.4998C45.1011 50.7149 46.0861 51.6999 47.3011 51.6999Z" fill="#FFDD40"/>
</g>
<defs>
<clipPath id="clip0_297_451">
<rect width="66" height="66" fill="white"/>
</clipPath>
</defs>
</svg>
