<svg width="64" height="64" viewBox="0 0 64 64" fill="none" xmlns="http://www.w3.org/2000/svg">
<g clip-path="url(#clip0_297_379)">
<path d="M6.80054 64.0241L8.56052 51.2178C8.78316 49.4578 9.90375 44.3952 12.3443 42.6056C13.0834 42.0994 13.869 41.6654 14.6909 41.3093L15.5649 40.9341V50.4551L15.1777 50.596C13.8873 51.0712 12.6258 51.7282 12.6258 54.116V62.763C12.6258 62.925 12.7572 63.0564 12.9192 63.0564H51.1569C51.3175 63.0536 51.4472 62.924 51.45 62.763V54.104C51.45 51.7575 50.2417 51.1357 48.8924 50.6429L48.5053 50.5023V40.9573L49.3381 41.3445C50.1385 41.6954 50.9039 42.1195 51.6261 42.6116C54.5595 44.7468 55.4043 51.1589 55.4159 51.2234L57.1759 64.0301L6.80054 64.0241Z" fill="#08627C"/>
<path d="M56.5129 64.0238H7.46912L9.15265 51.2936C9.37001 49.5688 10.4434 44.7349 12.7018 43.0806C13.4194 42.5934 14.1814 42.1742 14.9783 41.8311V50.0441C13.6819 50.5193 12.0449 51.2936 12.0449 54.1037V62.7511C12.0449 63.2369 12.4391 63.6311 12.9248 63.6311H51.1568C51.6426 63.6311 52.0368 63.2369 52.0368 62.7511V54.1037C52.0368 51.2936 50.3882 50.5841 49.1034 50.0913V41.8783C49.8679 42.2136 50.6006 42.6184 51.2918 43.0866C53.5446 44.7352 54.618 49.5748 54.841 51.2996L56.5129 64.0238Z" fill="#08627C"/>
<path d="M13.2183 62.5752V54.2212C13.2183 50.9771 15.7938 50.584 15.8991 50.5723C16.0471 50.554 16.1584 50.4279 16.1573 50.2789V40.8283L16.5328 40.6814C17.4245 40.3355 18.4454 39.9716 19.56 39.6081L20.3283 39.3555V50.5959C20.3283 50.7576 20.4597 50.889 20.6217 50.889H43.5008C43.6628 50.889 43.7942 50.7576 43.7942 50.5959V39.3791L47.9595 40.84V50.2789C47.9606 50.4251 48.0673 50.5494 48.2118 50.5723C48.3231 50.5723 50.9042 50.9771 50.9042 54.2212V62.5752C50.9046 62.5752 13.2183 62.5752 13.2183 62.5752ZM47.6485 54.1099V53.7052H44.07V54.1099H47.6485ZM20.0352 54.1099V53.7052H16.4272V54.1099H20.0352Z" fill="#F66701"/>
<path d="M48.0945 51.1534C47.6587 51.0925 47.3336 50.7198 47.3318 50.2791V41.2449L44.3107 40.2064V50.5961C44.3107 51.0819 43.9165 51.4761 43.4307 51.4761H20.5513C20.0655 51.4761 19.6713 51.0819 19.6713 50.5961V40.1655C18.6684 40.4939 17.6415 40.8518 16.6738 41.2273V50.2791C16.6748 50.7205 16.3486 51.0946 15.9111 51.1534C15.6937 51.1827 13.7344 51.5638 13.7344 54.2214V61.9888H50.2769V54.2214C50.2769 51.4761 48.1826 51.165 48.0945 51.1534ZM20.5982 54.6734H15.8406V53.1188H20.5982V54.6734ZM48.2118 54.6734H43.4599V53.1188H48.2118V54.6734Z" fill="#F66701"/>
<path d="M20.8916 50.3025V39.1561L21.308 39.0272C22.9098 38.5343 24.2999 38.1591 25.2035 37.9185L25.573 37.8188L31.7974 45.7208C31.8513 45.7923 31.9362 45.8335 32.026 45.8325C32.1131 45.8353 32.1962 45.7958 32.249 45.7268L38.4438 37.8421L38.8782 37.9594C39.6525 38.1708 41.1014 38.5463 42.7793 39.0684L43.1957 39.1913V50.3025H20.8916Z" fill="#08627C"/>
<path d="M42.5507 39.6313V49.716H21.4313V39.6137C23.1092 39.0976 24.5521 38.7105 25.3032 38.5107L31.3398 46.0844C31.5047 46.2957 31.7579 46.4194 32.026 46.419C32.2959 46.4201 32.5499 46.294 32.7123 46.0787L38.6316 38.5107C39.3946 38.7161 40.8671 39.1153 42.5507 39.6313Z" fill="#08627C"/>
<path d="M25.9778 37.4141V34.9619L26.8109 35.3431C28.0481 35.9155 29.3956 36.2118 30.7589 36.2114H33.2935C34.6322 36.2114 35.956 35.9275 37.177 35.3783L38.0042 35.0088V37.4198L32.0204 45.0462L25.9778 37.4141Z" fill="#E6A964"/>
<path d="M37.4177 35.9118V37.2142L31.9912 44.1132L26.5352 37.2086V35.877C27.8506 36.4829 29.2812 36.7971 30.7297 36.7978H33.264C34.6953 36.8006 36.1118 36.4987 37.4177 35.9118Z" fill="#E6A964"/>
<path d="M44.3107 24.1791C43.4783 24.1791 42.803 23.5042 42.803 22.6717V20.278C42.803 19.447 43.4765 18.7734 44.3079 18.7734C45.1393 18.7734 45.8125 19.4466 45.8125 20.278V22.6717C45.8125 23.5017 45.1407 24.1756 44.3107 24.1791Z" fill="#FCC082"/>
<path d="M45.2375 20.2779V22.6716C45.2375 23.1782 44.8264 23.5897 44.3195 23.5897C43.8126 23.5897 43.4011 23.1782 43.4011 22.6716V20.2779C43.4011 19.771 43.8126 19.3599 44.3195 19.3599C44.8264 19.3599 45.2375 19.7706 45.2375 20.2779Z" fill="#FCC082"/>
<path d="M32.6831 1.15918L33.3169 1.21202C34.4427 1.29833 35.5506 1.54281 36.6078 1.93947L36.9834 2.08602V7.11373L36.8897 7.26028C36.0787 8.44006 34.7929 9.20696 33.3697 9.36056L32.7007 9.45426L32.6831 1.15918Z" fill="#D2590B"/>
<path d="M36.3968 2.49057V6.94336C35.6764 7.98645 34.5319 8.65789 33.27 8.77943V1.79834C34.3395 1.88007 35.3925 2.11292 36.3968 2.49057Z" fill="#D2590B"/>
<path d="M31.4043 9.36065C29.9801 9.20917 28.6942 8.44191 27.8847 7.26037L27.7906 7.11382V1.79866L28.207 1.67571C29.2748 1.36994 30.3767 1.20049 31.4864 1.1709H32.0733V9.45471L31.4043 9.36065Z" fill="#D2590B"/>
<path d="M31.51 1.75781V8.79738C30.2467 8.67479 29.1011 8.00299 28.3772 6.96131V2.26791C29.3956 1.9653 30.4482 1.7941 31.51 1.75781Z" fill="#D2590B"/>
<path d="M19.7361 24.1791C18.9037 24.1791 18.2284 23.5042 18.2284 22.6717V20.278C18.2284 19.447 18.9016 18.7734 19.733 18.7734C20.5643 18.7734 21.2379 19.4466 21.2379 20.278V22.6717C21.2379 23.5017 20.5661 24.1756 19.7361 24.1791Z" fill="#FCC082"/>
<path d="M20.651 20.2779V22.6716C20.651 23.1782 20.2399 23.5897 19.733 23.5897C19.226 23.5897 18.8149 23.1782 18.8149 22.6716V20.2779C18.8149 19.771 19.226 19.3599 19.733 19.3599C20.2399 19.3599 20.651 19.7706 20.651 20.2779Z" fill="#FCC082"/>
<path d="M21.3904 18.952L21.2199 18.7759C20.8292 18.3771 20.2945 18.1527 19.7357 18.1541C19.6061 18.1541 19.4765 18.1657 19.3486 18.1893L19.0319 18.2478L18.8149 18.0132C18.5873 17.7282 18.4746 17.3685 18.4982 17.0043V15.9305C18.4859 15.4969 18.6176 15.0724 18.8734 14.7222C19.0167 14.5806 19.2126 14.5063 19.4131 14.5168H19.7534C19.9154 14.5168 20.0468 14.3854 20.0468 14.2234C20.0468 13.8775 20.1173 5.6641 26.3649 2.42596L27.2217 1.97998V7.16586C27.2217 7.21483 27.2315 7.26203 27.2509 7.30677C27.4739 7.74078 28.8171 10.0052 32.4075 10.0052C36.2266 10.0052 37.5113 7.40647 37.5642 7.29515C37.5723 7.25217 37.5723 7.20884 37.5642 7.16586V2.29703L38.4674 2.88357C43.7474 6.26262 44.0112 13.4431 44.0232 14.2294C44.0197 14.3911 44.1486 14.5249 44.3106 14.5285C44.3124 14.5285 44.3145 14.5285 44.3163 14.5285H44.6506C44.8736 14.5101 45.092 14.5996 45.2375 14.7691C45.4767 15.1256 45.5975 15.548 45.5834 15.9774V17.0159C45.6116 17.402 45.4827 17.7825 45.2255 18.072L45.0085 18.289L44.7034 18.2362C44.5798 18.2126 44.4544 18.201 44.3283 18.201C43.7678 18.1985 43.2306 18.4232 42.8381 18.8227L42.668 18.9989L21.3904 18.952Z" fill="#F66701"/>
<path d="M44.9854 15.9543V17.0045C45.0111 17.2331 44.9459 17.4631 44.8036 17.6439C44.6451 17.6132 44.4837 17.5974 44.3224 17.597C43.6097 17.5889 42.9238 17.8658 42.4158 18.3657H21.6367C21.1365 17.8545 20.451 17.5671 19.7359 17.5678C19.5706 17.5681 19.4058 17.584 19.243 17.6146C19.1077 17.4304 19.0447 17.2028 19.0672 16.9752V15.9307C19.0535 15.6521 19.1254 15.3759 19.2726 15.1388C19.2726 15.1388 19.3078 15.1036 19.3956 15.1036H19.7359C20.2216 15.1036 20.6158 14.7094 20.6158 14.2236C20.6158 13.8132 20.7332 6.01059 26.6172 2.94824V7.1724C26.6172 7.30345 26.6454 7.43379 26.6993 7.55357C26.7638 7.67687 28.1955 10.5983 32.39 10.5983C36.5846 10.5983 38.0159 7.66489 38.0747 7.55357C38.1286 7.43379 38.1568 7.30345 38.1568 7.17205V3.37062C43.3135 6.66759 43.4364 13.8364 43.4364 14.2296C43.4396 14.7111 43.8288 15.1008 44.3107 15.1036H44.6451C44.7331 15.1036 44.7564 15.1036 44.768 15.1388C44.9227 15.3819 44.9984 15.6662 44.9854 15.9543Z" fill="#F66701"/>
<path d="M30.7589 35.6243C25.8284 35.6208 21.8308 31.6263 21.8244 26.6958V20.2777L21.7247 19.609L22.3993 19.5386H42.3453L42.2456 20.2072V26.6606C42.2586 31.5985 38.2663 35.6116 33.3288 35.6243C33.3168 35.6243 33.3052 35.6243 33.2935 35.6243H30.7589Z" fill="#FCC082"/>
<path d="M41.6531 20.1255C41.6503 20.1667 41.6503 20.2076 41.6531 20.2488V26.6958C41.6464 31.3075 37.9049 35.0416 33.2932 35.0381H30.7589C26.1533 35.0314 22.4212 31.3019 22.411 26.6958V20.278C22.4145 20.2368 22.4145 20.1959 22.411 20.1547L41.6531 20.1255Z" fill="#FCC082"/>
<path d="M56.5774 51.2177C56.5365 50.9303 55.6445 44.2366 52.3123 41.8313C51.1949 41.0859 49.9986 40.4662 48.7455 39.9836C48.673 39.9276 48.5912 39.8842 48.5053 39.8543L47.7658 39.5964C46.6629 39.1681 45.5074 38.7689 44.3928 38.423L43.7238 38.1296C43.6576 38.1067 43.5885 38.0933 43.5184 38.0887C41.6591 37.5018 40.0281 37.0678 39.1541 36.8332V34.8914C41.8064 32.9972 43.3803 29.9377 43.3779 26.6784V25.1823C43.6724 25.2933 43.9845 25.3507 44.2987 25.3524C45.7772 25.3489 46.9739 24.1501 46.9739 22.6716V20.2782C46.9732 19.6293 46.7351 19.0033 46.3053 18.5182C46.5928 18.0649 46.7375 17.5354 46.7217 16.9989V15.978C46.7692 15.2322 46.5374 14.4963 46.0707 13.9129C45.8258 13.6607 45.5151 13.4835 45.1731 13.4025C44.9617 10.9795 43.8179 3.85751 37.6755 1.08297H37.6231C36.0223 0.394266 34.3025 0.0275452 32.5601 0.00323796H32.0497C30.394 -0.0323421 28.7457 0.225525 27.1805 0.765919H27.1453C20.3519 3.26533 19.12 10.8562 18.903 13.3732C18.562 13.4564 18.2509 13.6336 18.0054 13.8837C17.5277 14.4642 17.285 15.2037 17.3248 15.9544V17.0045C17.3107 17.5414 17.4555 18.0698 17.7412 18.5239C17.3114 19.009 17.0729 19.635 17.0726 20.2839V22.6772C17.0726 24.1579 18.2728 25.3584 19.7534 25.3584C20.0662 25.356 20.3759 25.2985 20.6686 25.1883V26.6957C20.6729 29.9176 22.2162 32.9437 24.822 34.8386V36.8332C21.674 37.649 18.5754 38.6439 15.5412 39.8131H15.4944C14.155 40.3193 12.8762 40.9724 11.6813 41.7608C8.34913 44.1894 7.46315 50.8834 7.42228 51.1473L5.74438 63.9892H7.50436L9.1879 51.3762C9.40526 49.6515 10.4786 44.8172 12.7371 43.1629C13.4452 42.6937 14.1955 42.2907 14.9783 41.9606V49.5867C13.6819 50.0619 12.0449 51.3935 12.0449 54.2036V62.851C12.0449 63.3368 12.4391 63.731 12.9249 63.731H51.1569C51.6427 63.731 52.0368 63.3368 52.0368 62.851V54.2212C52.0368 51.4111 50.3882 50.0795 49.1034 49.6043V41.9782C49.8679 42.3136 50.6006 42.7183 51.2918 43.1865C53.5446 44.8352 54.618 49.6747 54.841 51.3995L56.5245 64.0125H58.2845L56.5774 51.2177ZM45.2375 20.2779V22.6716C45.2375 23.1782 44.8264 23.5896 44.3195 23.5896C43.8126 23.5896 43.4011 23.1782 43.4011 22.6716V20.2779C43.4011 19.771 43.8126 19.3598 44.3195 19.3598C44.8264 19.3598 45.2375 19.7706 45.2375 20.2779ZM33.27 1.79845C34.3398 1.88017 35.3924 2.11303 36.3968 2.49067V6.94346C35.6764 7.98656 34.5318 8.658 33.27 8.77953V1.79845ZM28.3772 2.23844C29.397 1.9464 30.4493 1.78435 31.51 1.75758V8.79715C30.2467 8.67455 29.1011 8.00276 28.3772 6.96107V2.23844ZM20.651 22.6716C20.651 23.1782 20.2399 23.5896 19.733 23.5896C19.2261 23.5896 18.8149 23.1782 18.8149 22.6716V20.2779C18.8149 19.771 19.2261 19.3598 19.733 19.3598C20.2399 19.3598 20.651 19.771 20.651 20.2779V22.6716ZM19.7362 17.597C19.5706 17.5974 19.4057 17.6132 19.2433 17.6439C19.1077 17.4597 19.045 17.2321 19.0672 17.0045V15.9308C19.0538 15.6521 19.1253 15.3759 19.2726 15.1389C19.2726 15.1389 19.3078 15.1036 19.3955 15.1036H19.7358C20.2216 15.1036 20.6158 14.7094 20.6158 14.2236C20.6158 13.8129 20.7331 6.01063 26.6172 2.94828V7.17209C26.6172 7.30349 26.6454 7.43383 26.6993 7.55361C26.7637 7.67655 28.1954 10.5983 32.39 10.5983C36.5845 10.5983 38.0158 7.66493 38.0747 7.55361C38.1286 7.43383 38.1568 7.30349 38.1568 7.17209V3.37066C43.3134 6.66763 43.4363 13.8365 43.4363 14.2296C43.4395 14.7112 43.8288 15.1008 44.3107 15.1036H44.645C44.7331 15.1036 44.7563 15.1036 44.768 15.1389C44.9184 15.3833 44.9899 15.668 44.9733 15.9544V17.0045C44.9994 17.2331 44.9342 17.4632 44.7916 17.6439C44.633 17.6132 44.4717 17.5974 44.3103 17.597C43.6019 17.5925 42.9206 17.8687 42.4154 18.3657H21.6367C21.1315 17.8651 20.447 17.5882 19.7362 17.597ZM22.411 26.696V20.2779C22.4145 20.237 22.4145 20.1958 22.411 20.1549H41.6531C41.6503 20.1958 41.6503 20.237 41.6531 20.2779V26.696C41.6468 31.3073 37.9052 35.0415 33.2936 35.038H30.7589C26.1532 35.0316 22.4205 31.301 22.411 26.696ZM37.4177 35.912V37.2143L31.9912 44.1133L26.5351 37.2087V35.8771C27.8505 36.483 29.2811 36.7972 30.7297 36.7979H33.264C34.6953 36.8008 36.1118 36.4989 37.4177 35.912ZM21.4782 39.6137C23.1561 39.0976 24.5993 38.7105 25.35 38.5107L31.3398 46.0843C31.5047 46.2957 31.758 46.4193 32.0261 46.419C32.2959 46.4201 32.5499 46.2939 32.7127 46.0787L38.632 38.5107C39.3887 38.7161 40.8612 39.0976 42.5743 39.6313V49.716H21.4549L21.4782 39.6137ZM50.2769 54.2212V61.9886H13.8049V54.2212C13.8049 51.564 15.7642 51.1825 15.9816 51.1533C16.4166 51.0916 16.7393 50.7185 16.7383 50.2789V41.2447C17.7063 40.8692 18.7329 40.5113 19.7362 40.183V50.596C19.7362 51.0817 20.1304 51.4759 20.6158 51.4759H43.4952C43.981 51.4759 44.3752 51.0817 44.3752 50.596V40.2062L47.3318 41.2447V50.2789C47.3336 50.7196 47.6587 51.0923 48.0945 51.1533C48.1826 51.1649 50.2769 51.4759 50.2769 54.2212Z" fill="black"/>
<path d="M15.8407 53.1182H20.5982V54.6964H15.8407V53.1182Z" fill="black"/>
<path d="M43.46 53.1182H48.2118V54.6964H43.46V53.1182Z" fill="black"/>
</g>
<defs>
<clipPath id="clip0_297_379">
<rect width="64" height="64" fill="white"/>
</clipPath>
</defs>
</svg>
